/* XPM */
static char *Grey1735821973[] = {
/* columns rows colors chars-per-pixel */
"80 16 5 1 ",
"  c black",
". c gray17",
"X c #323232",
"o c #5A5A5A",
"O c None",
/* pixels */
"OOOOOOOOOOOOOOOOOOOOOOOOOOOOOOOOOOOOOOOOOOOOOOOOOOOOOOOOOOOOOOOOOOOOOOOOOOOOOOOO",
"OOOOOOOOOOOOOOOOOOOOOO  OOOOOOOOOOOOOOOOOOOOOOOOOOOOOOOOOOOOOOOOOOOOOOOOOOOOOOOO",
"OOOOOOO  OOOOOOOOOOOOO o OOOOOOOOOOOO  OOOOOOOOOOOOOOOOOOOOOOOOOOOOOO   OOOOOOOO",
"OOOOOOO o OOOOOOOOO   oo OOOOOOOOOOOO o OOOOOOOOOOOOO  OOOOOOOOOOOOOO oo OOOOOOO",
"OOOOOO oo OOOOOOOO o ooo  OOOOOOO   O oo OOOOOOOOOO  oo  OOOOOOOOOOOOO oo OOOOOO",
"OO  OO oo OOOOOOOO o oooo OOOOOOO oo ooo OOOOOOOOOO ooooo OOOOOOOO     ooo OOOOO",
"OO o   ooo OOOOOOO o  oooo OOOOOOO oooooo OOOOOOOO   ooooo OOOOOOO ooX ooo OOOOO",
"OO oo. ooo OOOOOOOO X ooXX OOOOOOO oo oXXX OOOOOOO oo oooX OOOOOOOO o   oX OOOOO",
"OOO o  oo. OOOOOOOO   oX.oX OOOOOOO o Xooo OOOOOOOO o XXXo OOOOOOOOO    XoX OOOO",
"OOOO    .o. OOOOOOO    Xooo OOOOOOOO oXoooX OOOOOOOO oXooo OOOOOOOOOO X ooo OOOO",
"OOOOO . ooo OOOOOOOO X oooooOOOOOOOOO XX oo OOOOOOOO oXXoo OOOOOOOOOO XX o  OOOO",
"OOOOO ..  o OOOOOOOO XX     OOOOOOOOOO o    OOOOOOOOO o o  OOOOOOOOOO  o   OOOOO",
"OOOOO  o O  OOOOOOOOO  o OOOOOOOOOOOOO o OOOOOOOOOOOO o o OOOOOOOOOOOOO  OOOOOOO",
"OOOOOOO  OOOOOOOOOOOOOO  OOOOOOOOOOOOOOOOOOOOOOOOOOOOOOOOOOOOOOOOOOOOOOOOOOOOOOO",
"OOOOOOOOOOOOOOOOOOOOOOOOOOOOOOOOOOOOOOOOOOOOOOOOOOOOOOOOOOOOOOOOOOOOOOOOOOOOOOOO",
"OOOOOOOOOOOOOOOOOOOOOOOOOOOOOOOOOOOOOOOOOOOOOOOOOOOOOOOOOOOOOOOOOOOOOOOOOOOOOOOO"
};
