/* XPM */
static char *White1735821973[] = {
/* columns rows colors chars-per-pixel */
"80 16 6 1 ",
"  c black",
". c gray43",
"X c gray67",
"o c #B2B2B2",
"O c gray85",
"+ c None",
/* pixels */
"++++++++++++++++++++++++++++++++++++++++++++++++++++++++++++++++++++++++++++++++",
"++++++++++++++++++++++  ++++++++++++++++++++++++++++++++++++++++++++++++++++++++",
"+++++++  +++++++++++++ O ++++++++++++  ++++++++++++++++++++++++++++++   ++++++++",
"+++++++ O +++++++++   OO ++++++++++++ O +++++++++++++  ++++++++++++++ OO +++++++",
"++++++ OO ++++++++ O OOO  +++++++   + OO ++++++++++  OO  +++++++++++++ OO ++++++",
"++  ++ OO ++++++++ O OOOO +++++++ OO OOO ++++++++++ OOOOO ++++++++     OOO +++++",
"++ O   OOO +++++++ O  OOOO +++++++ OOOOOO ++++++++   OOOOO +++++++ OOo.OOO +++++",
"++ OOX.OOO ++++++++ o.OOoo +++++++ OO.Oooo +++++++ OO.OOOo ++++++++ O. .Oo +++++",
"+++ O. OOX ++++++++ . OoXOo +++++++ O.oOOO ++++++++ O.oooO +++++++++ ...oOo ++++",
"++++ ...XOX +++++++ ...oOOO ++++++++ OoOOOo ++++++++ OoOOO ++++++++++ o.OOO ++++",
"+++++ X.OOO ++++++++ o.OOOOO+++++++++ oo OO ++++++++ OooOO ++++++++++ oo O  ++++",
"+++++ XX  O ++++++++ oo     ++++++++++ O    +++++++++ O O  ++++++++++  O   +++++",
"+++++  O +  +++++++++  O +++++++++++++ O ++++++++++++ O O +++++++++++++  +++++++",
"+++++++  ++++++++++++++  +++++++++++++++++++++++++++++++++++++++++++++++++++++++",
"++++++++++++++++++++++++++++++++++++++++++++++++++++++++++++++++++++++++++++++++",
"++++++++++++++++++++++++++++++++++++++++++++++++++++++++++++++++++++++++++++++++"
};
