/* XPM */
static char *BunnyRunning[] = {
/* columns rows colors chars-per-pixel */
"256 32 43 1 ",
"  c #3E83AF",
". c #418AB9",
"X c #B9B9B9",
"o c gray73",
"O c #BBBDBC",
"+ c gray74",
"@ c #BFBDBD",
"# c #BCBEBD",
"$ c #BCBFBE",
"% c #BCBFBF",
"& c gray75",
"* c #BDC0BD",
"= c #BDC1BD",
"- c #BFC1BE",
"; c #BCBFC1",
": c #BFBFC1",
"> c #BDBFC2",
", c #BDBFC4",
"< c #BFC0C2",
"1 c #C1C1C3",
"2 c #C1C2C2",
"3 c #C3C3C3",
"4 c #C1C1C4",
"5 c #C0C1C5",
"6 c #C1C1C7",
"7 c #C5CCCC",
"8 c #D1D0D5",
"9 c #D5D5D5",
"0 c #D7D7D6",
"q c #D7D7DA",
"w c #D6DAD8",
"e c #DFDFDF",
"r c #C9EAFF",
"t c #E9E9EB",
"y c #F1E4EF",
"u c #F1F3F3",
"i c #F6F6F6",
"p c #F9FEF6",
"a c #F4F3FA",
"s c #F6F6F9",
"d c #FDF6FE",
"f c white",
"g c None",
/* pixels */
"gggggggggggggggggggggggggggggggggggggggggggggggggggggggggggggggggggggggggggggggggggggggggggggggggggggggggggggggggggggggggggggggggggggggggggggggggggggggggggggggggggggggggggggggggggggggggggggggggggggggggggggggggggggggggggggggggggggggggggggggggggggggggggggggg",
"gggggggggggggggggggggggggggggggggggggggggggggggggggggggggggggggggggggggggggggggggggggggggggggggggggggggggggggggggggggggggggggggggggggggggggggggggggggggggggggggggggggggggggggggggggggggggggggggggggggggggggggggggggggggggggggggggggggggggggggggggggggggggggggggg",
"gggggggggggggggggggggggggggggggggggggggggggggggggggggggggggggggggggggggggggggggggggggggggggggggggggggggggggggggggggggggggggggggggggggggggggggggggggggggggggggggggggggggggggggggggggggggggggggggggggggggggggggggggggggggggggggggggggggggggggggggggggggggggggggggg",
"gggggggggggggggggggggggggggggggggggggggggggggggggggggggggggggggggggggggggggggggggggggggggggggggggggggggggggggggggggggggggggggggggggggggggggggggggggggggggggggggggggggggggggggggggggggggggggggggggggggggggggggggggggggggggggggggggggggggggggggggggggggggggggggggg",
"gggggggggggggggggggggggggggggggggggggggggggggggggggggggggggggggggggggggggggggggggggggggggggggggggggggggggggggggggggggggggggggggggggggggggggggggggggggggggggggggggggggggggggggggggggggggggggggggggggggggggggggggggggggggggggggggggggggggggggggggggggggggggggggggg",
"gggggggggggggggggggggggggggggggggggggggggggggggggggggggggggggggggggggggggggggggggggggggggggggggggggggggggggggggggggggggggggggggggggggggggggggggggggggggggggggggggggggggggggggggggggggggggggggggggggggggggggggggggggggggggggggggggggggggggggggggggggggggggggggggg",
"gggggggggggggggggggggggggggggggggggggggggggggggggggggggggggggggggggggggggggggggggggggggggggggggggggggggggggggggggggggggggggggggggggggggggggggggggggggggfgfgggggggggggggggggggggggggggggggggggggggggggggggggggggggggggggggggggggggggggggggggggggggggggggggggggggg",
"ggggggggggggggggggggggggggggggggggggggggggggggggggggggggggggggggggggggggggggggggggggggggggggggggggggggggggggggggggggggggggggggggggggggggggggggggggggggfyfyfggggggggggggggggggggggggggggggggggggggggggggggggggggggggggggggggggggggggggggggggggggggggggggggggggggg",
"ggggggggggggggggggggggggggggggggggggggggggggggggggggggggggggggggggggggggggggggggggggggggggggggggggggggggggggggggggggggggggggggggggggggggggggggggggggggfyffyfgggggggggggggggggggggggggggggggggggggggggggggggggggggggggggggggggggggggggggggggggggggggggggggggggggg",
"gggggggggggggggggggggggggggggggggggggggggggggggggggggggggggggggggggggggggggggggggggggggggggggggggggggggggggggggggggfgfggggggggggggggggggggggggggggggggfyyfyfgggggggggggggggggggggggggggggggggggggggggggggggggggggggggggggggggggggggggggggggggggggggggggggggggggg",
"ggggggggggggggggggggggggggggggggggggggggggggggggggggggggggggggggggggggggggggggggggggggggggggggggggggggggggggggggggfyfyfggggggggggggggggggggggggggggggggfyfyfgggggggggggggggggggggggggggfgfgggggggggggggggggggggggggggggggggggggggggggggggggggggggggggggggggggggg",
"ggggggggggggggggggggggggggggggggggggggggggggggggggggggggggggggggggggggggggggggggggggfgfgggggggggggggggggggggggggggfyffyfgggggggggggggggggggggggggggggggfyfffggggggggggggggggggggggggggfyfyfggggggggggggggggggggggggggggggggggggggggggggggggggggggggggggggggggggg",
"gggggggggggggggggggggggggggggggggggggggggggggggggggggggggggggggggggggggggggggggggggfyfyfggggggggggggggggggggggggggfyyfyfggggggggggggggggggggggggggggggggfyffffggggggggggggggggggggggggfyffyfgggggggggggggggggggggggggggggggggggggggggggggggggggggggggggggggggggg",
"gggggggggggggggggggggggggggggggggggggggggggggggggggfgfgggggggggggggggggggggggggggggfyffyfggggggggggggggggggggggggggfyfyfggggggggggggggggggggggggggggggfffffffpfggggggggaaaggggggggggggfyyfyfgggggggggggggggggggggggggggggggggggggggggggggggggggggggggggggggggggg",
"ggggggggggggggggggggfgfgggggggggggggggggggggggggggfyfyfggggggggggggggggggggggggggggfyyfyfggggggggggggggggggggggggggfyfffggggggggggggggggggffffffffffffffffffr ffggggggaaaggfffffgggggggfyfyfgggggggggaaaggggggggggggggfgfggggggggggggggggggggggggggggggggggggggg",
"gggggggggggggggggggfyfyfggggggggggggggggggggggggggfyffyfggggggggggggggggggggggggggggfyfyfgggggggggggggggggggggggggggfyffffgggggggggggggfffffffffffffffffffff .ffggggggaaafffffffffgggggfyfffggggggggaaaggfffgggggggggfyfyfggggggggggggaaagggggggggggfgfggggggggg",
"gggggggggggggggggggfyffyfgggggggggggggggggggggggggfyyfyfggggggggggggggggggggggggggggfyfffggggggggggggggggggggggggggffffffffgggggggagggffffffffffffffffffffffffffggggggaaffffffffffffggggfyffffggggggaaafffffffiggggggfyfyyfggggggggggaaagggggggggggfyfyfgggggggg",
"gggggggggggggggggggfyyfyfggggggggggggggggggggggggggfyfyfgggggggggggggggggggggggggggggfyffffgggggggggggggffffffggggffffffr ffgggggaaagffffffffffffffffffffffffffggggggggfffffffffffffffffgffffffgggggaafffffffffffggggfyyfyfggggggggggaaaffffffgggggfyffyfggggggg",
"ggggggggggggggggggggfyfyfggggggggggggggggggggggggggfyfffffggggggggggggggfffffffffffgffffffffgggggggggggfffffffffffffffff .ffgggggaaaffffffffffffffffffffffffffggggggggffffffffffffffffffffffr ffgggggafffffffffffffgggfyfyfggggggggggaaffffffffggggfyyfyfggggggg",
"gggggggggfffffggggggfyfffggggggggggggggfffffffggggggfyfffffggggggggggggffffffffffffffffffr ffgggggagggffffffffffffffffffffffggggggaaffffffffffffffffffffffffgggggggggfffffffffffffffffffffff .ffgggggfffffffffffffffgggfyffffgggggggggafffffffffggggfyfyfggggggg",
"gggaggfffffffffffggggfyffffgggggggggggffffffffffffffffffr ffggggggggggfffffffffffffffffff .ffggggaaggffffffffffffffffffffffgggggggggffffffffffffffffffwffffgggggggggffffffffffffffffffffffffffffgggggffffffffffffffffffgffffffggggggggfffffffffffgggfyfffggggggg",
"ggaaafffffffffffffffffffffffgggggggaafffffffffffffffffff .ffgggggggaagfffffffffffffffffffffffggggaaaffffffffffffffffffffffgggggggggggfffff&wwwwwwwwwwwggffffggggggggffffffffqqffffffffffffffffffggggfffffffffffffffffffffffffffggggggffffffffffffffggfyffffggggg",
"ggaaaffffffffffffffffffffr ffgggggaaafffffffffffffffffffffffggggggaaafffffffffffffffffffffffgggggaaaffffffffffffffffgfffgggggggggggggfffff=&=gggggggggggggfffggggggfffgqqqqqggqqqffffffffffffffgggggffffffffffffffffffffffffr ffgggggffffffffffffffffgffffffgggg",
"gggaaffffffffffffffffffff .ffggggggaaffffffffffffffffffffffgggggggaaafffffffffffffffffgffffgggggggaafffffffffffffffffgggggggggggggggffffffgggggggggggggggggfffggggfffggggggggggg&qqffffff32gggggggfffffffff&ifffffffffffffff .ffgggggffffffffffffffffffffffffggg",
"gggggffffffffffffffffffffffffggggggggffffffffffffffff;ffffgggggggggaafffffffffffffffXgggggggggggggggffffffffffffffffffggggggggggggfffffffgggggggggggggggggggggggggffgggggggggggggggqqqff3333gggggffffffffgggggufffffffffffffffffggggggffffffffffffffffffffr ffgg",
"ggggggfffffffffffffffXffffffggggggggggffffffffffffeeegggggggggggggggggfffffffff0fff7gggggggggggggggggfffffff4,ffffggffgggggggggggffffffgggggggggggggggggggggggggggfgggggggggggggggggggffg2333gggfffffffggggggg44tffffffffffffffggggggggfffffffffffffffffff .ffgg",
"ggggggfffff2fffffffXXXXffffggggggggggggffffffffffeeegggggggggggggggggggfffffff&ggfffgggggggggggggggggggffffggggfffgggfgggggggggggfffggggggggggggggggggggggggggggggggggggggggggggggggggfffgg233ggffgggggggggggggg8fffg2;;;gffffggggggggggffffffffffffffffffffffgg",
"ggggggffffggffffeeegggggggggggggggggggggffffi;ffeegggggggggggggggggggggggfffffggffdgggggggggggggggggggggfffgggfffgggggggggggggggfffggggggggggggggggggggggggggggggggggggggggggggggggggggffggg333gfgggggggggggggggfffgggO&;gggggggggggggggff0;;0fffffffffffffffggg",
"gggggggffffgffffeeggggggggggggggggggggggffffi;ffegggggggggggggggggggggggggfffggggggggggggggggggggggggggggffgggggggggggggggggggggffgggggggggggggggggggggggggggggggggggggggggggggggggggggfffggggggggggggggggggggggfffgggg;;4ggggggggggggggfff;;2;fffffffggffffgggg",
"gggggggggfffffffeegggggggggggggggggggggggfffffffggggggggggggggggggggggggggfffggggggggggggggggggggggggggggfffgggggggggggggggggggggfggggggggggggggggggggggggggggggggggggggggggggggggggggggfffgggggggggggggggggggggfffggggg;;4ggggggggggggggfff;;;ffs;;;;gggggggggg",
"ggggggggggffffgfeeggggggggggggggggggggggggeeeffeggggggggggggggggggggggggggffffggggggggggggggggggggggggggggfffggggggggggggggggggggggggggggggggggggggggggggggggggggggggggggggggggggggggggggggggggggggggggggggggggggffgggggg242ggggggggggggggfff;fffg;&;ggggggggggg",
"ggggggggggggggggeeeggggggggggggggggggggggggggffggggggggggggggggggggggggggggffffggggggggggggggggggggggggggggggggggggggggggggggggggggggggggggggggggggggggggggggggggggggggggggggggggggggggggggggggggggggggggggggggggggggggggggggggggggggggggggfffggggg;;;gggggggggg"
};
