/* XPM */
static char *BunnyFoods[] = {
/* columns rows colors chars-per-pixel */
"64 64 128 2 ",
"   c #0F090F",
".  c #161416",
"X  c #1B1217",
"o  c #17141B",
"O  c #19141A",
"+  c #2A0B07",
"@  c #1C1421",
"#  c #6F0000",
"$  c #6B1515",
"%  c #7D1A1A",
"&  c #366117",
"*  c #375335",
"=  c #3E6F3C",
"-  c #4B692F",
";  c #446D3D",
":  c #447236",
">  c #4E7434",
",  c #495E4C",
"<  c #477440",
"1  c #861923",
"2  c #991824",
"3  c #B52E2E",
"4  c #BA2D3C",
"5  c #C62A3B",
"6  c #C62B39",
"7  c #C73535",
"8  c #D53D3D",
"9  c #A75D2A",
"0  c #B56229",
"q  c #C36C2F",
"w  c #C36E34",
"e  c #C22A41",
"r  c #4A8223",
"t  c #58992B",
"y  c #4B8247",
"u  c #4D834E",
"i  c #508652",
"p  c #5E8B56",
"a  c #56845A",
"s  c #5A8C5C",
"d  c #53A542",
"f  c #5EA25A",
"g  c #5CA952",
"h  c #62A355",
"j  c #64AB54",
"k  c #64A759",
"l  c #67AA5B",
"z  c #6AAD5E",
"x  c #6BB25C",
"c  c #5E8C62",
"v  c #608E65",
"b  c #669369",
"n  c #6C9A6E",
"m  c #6F9D71",
"M  c #729E74",
"N  c #6DAC62",
"B  c #79A56D",
"V  c #6EB663",
"C  c #71B264",
"Z  c #73BF63",
"A  c #75B16B",
"S  c #76B86A",
"D  c #6CA071",
"F  c #72A175",
"G  c #75A47A",
"H  c #78A67D",
"J  c #79A87E",
"K  c #7DBE71",
"L  c #73CC65",
"P  c #7EC072",
"I  c #98856B",
"U  c #A79276",
"Y  c #80BF74",
"T  c #80B078",
"R  c #DF8242",
"E  c #E38C50",
"W  c #82C375",
"Q  c #82CC76",
"!  c #86C37B",
"~  c #89CA7D",
"^  c #86C97B",
"/  c #83D575",
"(  c #88D273",
")  c #8CD17F",
"_  c #7AA780",
"`  c #7CAA82",
"'  c #81AD87",
"]  c #81B087",
"[  c #8FB686",
"{  c #83B28A",
"}  c #88B98F",
"|  c #8DBB94",
" . c #93BE9A",
".. c #9EBA99",
"X. c #BCA585",
"o. c #CBB595",
"O. c #89C581",
"+. c #8DCF81",
"@. c #91CE83",
"#. c #8ED183",
"$. c #92D385",
"%. c #96D789",
"&. c #99D68D",
"*. c #92C197",
"=. c #94C29B",
"-. c #98C79E",
";. c #98CC9E",
":. c #97D193",
">. c #9DD792",
",. c #9DDC91",
"<. c #A2DF96",
"1. c #A7E09B",
"2. c #AAE19E",
"3. c #9AC7A1",
"4. c #9BC9A0",
"5. c #A0C7A6",
"6. c #A3DAA8",
"7. c #AAD2A5",
"8. c #B6D8AC",
"9. c #B7DCB1",
"0. c #AEE2A4",
"q. c #E9CDA7",
"w. c #F4DDBD",
"e. c #C3E8BD",
"r. c #BEDFC3",
"t. c #C4D9C0",
"y. c #F8E3C7",
"u. c None",
/* pixels */
"u.u.u.u.u.u.u.u.u.o u.u.u.u.u.u.u.u.u.u.u.u.u.u.u.u.u.u.u.u.u.u.u.u.u.u.u.u.u.u.u.u.u.u.u.u.u.u.u.u.u.u.u.u.u.u.u.u.u.u.u.u.u.u.",
"u.u.u.u.u.u.u.u.o y o u.o o u.u.u.u.u.u.u.u.u.u.u.u.u.u.u.u.u.u.u.u.u.u.u.u.u.u.u.u.u.u.u.u.u.u.u.u.u.u.u.u.u.u.u.u.u.u.u.u.u.u.",
"u.u.u.u.u.u.u.u.o f o o f f o u.u.u.u.u.u.u.u.u.u.u.u.u.u.u.u.u.u.u.u.u.u.u.u.u.u.u.u.u.u.u.u.u.u.u.u.u.u.u.u.u.u.u.u.u.u.u.u.u.",
"u.u.u.u.u.u.u.u.u.o y = f = o u.u.u.u.u.u.u.u.u.u.u.u.u.u.u.u.u.u.u.u.u.u.u.u.u.u.u.u.u.u.u.u.u.u.u.u.u.u.u.u.u.u.u.u.u.u.u.u.u.",
"u.u.u.u.u.u.u.u.u.o * f O . u.u.u.u.u.u.u.u.u.u.u.u.u.u.u.u.u.u.u.u.u.u.u.u.u.u.u.t u.u.u.u.u.u.u.u.u.u.u.u.t u.u.u.u.u.u.u.u.u.",
"u.u.u.u.u.u.u.O   = : = = f O u.u.u.u.u.u.u.u.u.u.u.u.u.u.u.u.u.u.u.u.u.u.u.u.& r r u.u.t u.u.u.u.u.u.t u.u.r r & u.u.u.u.u.u.u.",
"u.u.u.u.u.u.X w 9 f ; * * . u.u.u.u.u.u.u.u.u.u.u.u.u.u.u.o u.u.u.u.u.u.u.u.4 e # & u.> r u.u.u.u.u.u.r > u.& # e 4 u.u.u.u.u.u.",
"u.u.u.u.u.O 0 R w 9 y f O u.u.u.u.u.u.u.u.u.u.u.u.u.u.u.o y o u.u.u.u.u.u.6 6 3 6 # & t u.u.u.u.u.u.u.u.t & # 6 3 6 6 u.u.u.u.u.",
"u.u.u.u.X 0 R E R w 9 O u.u.u.u.u.u.u.u.u.u.u.u.u.u.O O y o o u.u.u.u.u.4 5 3 8 8 5 # & u.u.u.u.u.u.u.u.& # 8 8 8 3 5 4 u.u.u.u.",
"u.u.u.X 0 R E R q 0 O u.u.u.u.u.u.u.u.u.u.O O O O . w y o = f o u.u.u.u.7 3 8 8 8 3 2 # & t u.u.u.u.t & # 2 3 8 8 8 3 6 u.u.u.u.",
"u.u.O 0 R E R q 0 O u.u.u.u.u.u.u.u.u.O O 0 0 R R R 9 f : O = o u.u.u.4 7 8 8 e 4 8 2 2 r u.u.u.u.u.u.r 2 2 e e 8 8 8 3 4 u.u.u.",
"u.O 0 R E R w 0 O u.u.u.u.u.u.u.u.O O R R E E E E R 9 y * f o u.u.u.u.4 8 8 8 4 5 2 1 $ u.u.u.u.u.u.u.u.$ 1 2 5 4 8 8 8 4 u.u.u.",
"u.O R E R w 0 O u.u.u.u.u.u.u.u.O 0 R q R R R q w 0 9 O . O u.u.u.u.u.3 7 4 5 4 2 1 $ u.u.u.u.u.u.u.u.u.u.$ 1 2 4 5 4 7 3 u.u.u.",
"O 0 R q 0 O O u.u.u.u.u.u.u.u.u.u.O + O O O O O O O O u.u.u.u.u.u.u.u.1 3 2 2 % $ $ u.u.u.u.u.u.u.u.u.u.u.u.$ $ % 2 2 3 1 u.u.u.",
"O q 0 + X u.u.u.u.u.u.u.u.u.u.u.u.u.u.u.u.u.u.u.u.u.u.u.u.u.u.u.u.u.u.% $ $ $ $ u.u.u.u.u.u.u.u.u.u.u.u.u.u.u.u.$ $ $ $ % u.u.u.",
"O @ O u.u.u.u.u.u.u.u.u.u.u.u.u.u.u.u.u.u.u.u.u.u.u.u.u.u.u.u.u.u.u.u.u.u.u.u.u.u.u.u.u.u.u.u.u.u.u.u.u.u.u.u.u.u.u.u.u.u.u.u.u.",
"u.u.u.u.u.u.o u.u.u.u.u.u.u.u.u.u.u.u.u.u.u.u.u.u.u.u.u.u.u.u.u.u.u.u.u.u.u.u.u.u.u.u.u.u.u.u.u.u.u.u.u.u.u.u.u.u.u.u.u.u.u.u.u.",
"u.u.o o u.o y o u.u.u.u.u.u.u.u.u.u.u.u.u.u.u.u.u.u.u.u.u.u.u.u.u.u.u.u.u.u.u.u.u.u.u.u.u.u.u.u.u.u.u.u.u.u.u.u.u.u.u.u.u.u.u.u.",
"u.o f f o o f o u.u.u.u.u.u.u.u.u.u.u.u.u.u.u.u.u.u.u.u.u.u.u.u.u.u.u.y.y.y.y.y.y.y.y.y.y.y.y.y.y.y.y.y.y.y.y.y.y.y.y.y.y.u.u.u.",
"u.O = f = y o u.u.u.u.u.u.u.u.u.u.u.u.u.u.u.u.u.u.u.u.u.u.u.u.u.u.u.u.w.w.w.w.w.w.w.w.w.y.y.y.y.y.y.y.y.y.y.y.y.y.y.y.y.y.u.u.u.",
"u.u.. O f * o u.u.u.u.u.u.u.u.u.u.u.o u.u.u.u.u.u.u.u.u.u.u.u.u.u.u.u.w.w.w.w.w.w.w.w.w.w.w.w.w.w.w.w.w.w.w.w.w.w.w.w.w.w.u.u.u.",
"u.O f = = : =   O u.u.u.u.u.u.u.u.o y o u.u.u.u.u.u.u.u.u.u.u.u.u.u.u.w.w.w.w.w.w.w.w.w.w.w.w.w.w.w.w.w.w.w.w.w.w.w.w.w.w.u.u.u.",
"u.u.. * * ; k 9 w X u.u.u.u.u.u.u.o o y o O u.u.u.u.u.u.u.u.u.u.u.u.u.I q.q.q.q.q.q.q.q.q.q.q.q.q.q.q.q.q.q.q.q.q.q.q.q.q.u.u.u.",
"u.u.u.o f y 9 w R 0 O u.u.u.u.u.o f = o y w X O O O O u.u.u.u.u.u.u.u.I q.q.q.q.q.q.q.q.q.q.q.q.q.q.q.q.q.q.q.q.q.q.q.q.q.u.u.u.",
"u.u.u.u.O 9 w R E R 0 . u.u.u.u.o = O : f 9 R R R 0 0 O O u.u.u.u.u.u.I q.q.q.q.q.q.q.q.q.q.q.q.q.q.q.q.q.q.q.q.q.q.q.q.q.u.u.u.",
"u.u.u.u.u.O 0 w R E R 0 X u.u.u.u.o f * y 9 R E E E E R R O O u.u.u.I I q.q.q.q.q.q.q.q.q.q.q.q.q.q.q.q.q.q.q.q.q.q.q.q.q.u.u.u.",
"u.u.u.u.u.u.O 0 q R E R 0 O u.u.u.u.. O O 9 0 q q R R R q R 0 O u.u.I I q.q.q.q.q.q.q.q.q.q.q.q.q.q.q.q.q.q.q.q.q.q.q.q.q.u.u.u.",
"u.u.u.u.u.u.u.O 0 q R E R 0 O u.u.u.u.u.u.O O O O O O O O + O u.u.u.I I I q.q.q.q.q.q.q.q.q.q.q.q.q.q.q.q.q.q.q.q.q.q.q.q.q.u.u.",
"u.u.u.u.u.u.u.u.O 0 w R E R O u.u.u.u.u.u.u.u.u.u.u.u.u.u.u.u.u.u.u.I I I q.q.q.q.q.q.q.q.q.q.q.q.q.q.q.q.q.q.q.q.q.q.q.q.q.u.u.",
"u.u.u.u.u.u.u.u.u.O O 0 q R 0 O u.u.u.u.u.u.u.u.u.u.u.u.u.u.u.u.u.u.I I I I X.X.X.X.X.X.X.X.X.X.X.X.X.X.X.X.X.X.X.X.X.X.X.X.u.u.",
"u.u.u.u.u.u.u.u.u.u.u.X + 0 q O u.u.u.u.u.u.u.u.u.u.u.u.u.u.u.u.u.u.I I I I X.X.X.X.X.X.X.X.X.X.X.X.X.X.X.X.X.X.X.X.X.X.X.X.u.u.",
"u.u.u.u.u.u.u.u.u.u.u.u.u.X @ O u.u.u.u.u.u.u.u.u.u.u.u.u.u.u.u.u.u.I I I I X.X.X.X.X.X.X.X.X.X.X.X.X.X.X.X.X.X.X.X.X.X.X.X.u.u.",
"u.u.u.u.u.u., , , u.u.u.u.u.u.u.u.u.u.u.u.u.u.u., , , u.u.u.u.u.u.u.I I I I X.X.X.X.X.X.X.X.X.X.X.X.X.X.X.X.X.X.X.X.X.X.X.X.u.u.",
"u.u.u.u.u., r.r.r., u.u.u.u.u.u.u.u.u.u.u.u.u., r.r.r., u.u.u.u.u.u.I I I I X.X.X.o.o.o.o.o.o.o.o.o.o.o.o.o.o.o.o.o.o.o.X.X.u.u.",
"u.u.u., , b _ | r.r., u.u.u.u.u.u.u.u.u.u.u., r.r.=.F b , , u.u.u.u.I I I I X.X.o.U U o.o.o.o.o.o.o.o.o.o.o.o.o.o.o.o.o.o.X.u.u.",
"u.u., s m m m _ =.r.r., u.u.u.u.u.u.u.u.u., r.{  ._ M m m p , u.u.u.I I I I X.X.o.U o.U o.o.o.o.o.o.o.o.o.o.o.o.o.o.o.o.o.X.u.u.",
"u., u M m M _ M _ _ _ r., , u.u.u.u.u., , r.` ` G G M M m M u , u.u.I I I I X.X.o.U U o.o.U o.U o.U U o.o.U U o.o.U o.U o.X.u.u.",
"u., u M n M m _ _ G ` ` r.r., u.u.u., r.r.r.` G H G F m n M u , u.u.I I I I X.X.o.U o.U o.U o.U o.U o.U o.U o.U o.U o.U o.X.u.u.",
"u., i a n M G M _ ` ` ` =.r.r., u., r.r. .{ ` ` G G G m b a i , u.u.I I I I X.X.o.U U o.o.U U U o.U o.U o.U o.U o.U U U o.X.u.u.",
"u.u., s < c m G G ` ` { | 3.r., u., r.3.| { ` ` M G m a a s , u.u.u.I I I I X.X.o.o.o.o.o.o.o.o.o.o.o.o.o.o.o.o.o.o.o.U o.X.u.u.",
"u.u.u., H c a J _ ` ` ` } 3., u.u.u., 5.| ` ` ` J J a b G , u.u.u.u.I I I I X.X.o.o.o.o.o.o.o.o.o.o.o.o.o.o.o.o.o.U U U o.X.u.u.",
"u.u.u., =.| G a M _ _ ` | 5.r., u., r.5.} _ _ _ M a H } *., u.u.u.u.I I I I X.X.o.o.U U U o.o.o.o.o.o.o.o.o.o.o.U o.o.o.o.X.u.u.",
"u.u.u., 3.*.;.a H F _ `  .5.t., u., r.5. .` _ D H a -. .;., u.u.u.u.I I I I X.X.o.o.U o.o.o.o.o.o.o.o.o.o.o.o.o.U o.o.o.o.X.u.u.",
"u.u., 3.*.;.} G a b F ] | 3.r., u., r.5.| ] G b a H } ;.*.3., u.u.u.I I I I X.X.o.o.U U U o.U U U o.U U U o.U U U o.o.o.o.X.u.u.",
"u., 3. .=.=.;.H a c s m a r., u.u.u., r.a m c c a H ;.=.=. .3., u.u.I I I I X.X.o.o.U o.o.o.U o.U o.U o.U o.U o.U o.o.o.o.X.u.u.",
"u., 6.;. .3., , , a a a , , u.u.u.u.u., , a a a , , , 3. .;.6., u.u.I I I I X.X.o.o.U o.o.o.U U U o.U U U o.U U U o.o.o.o.X.u.u.",
"u.u., 6.;., u.u.u., , , u.u.u.u.u.u.u.u.u., , , u.u.u., ;.6., u.u.u.I I I I X.X.X.o.o.o.o.o.o.o.o.o.o.o.o.o.o.o.o.o.o.o.X.X.u.u.",
"u.u.u., , u.u.u.u.u.u.u.u.u.u.u.u.u.u.u.u.u.u.u.u.u.u.u., , u.u.u.u.I I I I X.X.X.X.X.X.X.X.X.X.X.X.X.X.X.X.X.X.X.X.X.X.X.X.u.u.",
"u.u.u.u.u.u.u.u.u.u.u.u.u.u.u.u.u.u.u.u.u.u.u.u.u.u.u.u.u.u.u.u.u.u.u.u.u.u.- u.u.u.u.u.u.u.u.u.u.u.u.u.u.u.u.u.u.- u.u.u.u.u.u.",
"u.u.u.u.u.u.u.u.u.u.u.u.u.u.u.u.u.u.u.u.u.u.u.u.u.u.u.u.u.u.u.u.u.u.u.u.u.- e.- - u.u.- - u.u.u.u.u.u.> - u.u.- - e.- u.u.u.u.u.",
"u.u.u.u.u.p u.u.u.u.u.u.u.u.u.u.u.u.u.u.u.u.u.u.u.u.p u.u.u.u.u.u.u.u.- - <.#.$.( - - B L - u.u.u.u.- L B - - ( $.#.<.- - u.u.u.",
"u.u.u.u.p / p p u.u.u.u.u.u.u.u.u.u.u.u.u.u.u.u.p p / p u.u.u.u.u.u.- e.Q ~ @.) P ^ l N C l - u.u.- j C z k ! P +.@.~ Q e.- u.u.",
"u.u.u.u.p Q ^ / p u.u.u.u.u.u.u.u.u.u.u.u.u.u.p / Q Q p u.u.u.u.u.u.u.- 7.) W %.k ~ ^ k k N - u.u.- N l k ! ~ k %.W #.7.- u.u.u.",
"u.u.u.u.p Q A Q Q p u.u.u.u.u.u.u.u.u.u.u.u.p ^ Q A Q p u.u.u.u.u.- - 8.:.W $.,.k ^ K k K z g - - g N K k P ^ k ,.$.W :.8.- - u.",
"u.u.u.p / Q A ! ! p u.u.p p u.u.u.u.p p u.u.p ! ! A ^ / p u.u.u.- L z l W K ~ $.l ~ #.k ! z N - - N z ! k $.~ k $.~ K W l z L - ",
"u.u.u.u.p ! ! A ! ! p p / / p u.u.p / / p p O.Y A ! ! p u.u.u.u.u.- z z k $.W k <.Y K k N k - u.u.- k N k P P 1.j W #.k z z - u.",
"u.u.u.u.u.p ! A A ! ! ! ^ A ( < < / A ~ ! ! ! A A ! p u.u.u.u.u.u.- S K k $.$.~ k ~ k $.A C h - - h C C ) k ~ k ~ $.$.k K S - u.",
"u.u.p p p ! ! ! ! A A A A ! / < < / ! A A A A ! ! ! ! p p p u.u.- P x N ^ k Y ,.k &.Y k P A ..- - ..A Y k Y &.k 1.K k ^ z z P - ",
"u.p / Q ! A A A A ! ! ! ! ! < u.u.< ! O.! ! ! A A A A ! Q / p u.u.- x K C ! k ^ ,.k ^ k ! A d - - d S ! k ! l ,.Q k ! N K x - u.",
"< / ^ A A A ! ! ! ! < < < < u.u.u.u.< < < < ! ! ! ! A A A Q / < u.u.- [ h C O.k @.<.k k C C e.- - e.C C k k 6.+.k O.V h [ - u.u.",
"u.< / Q ! ! ! ! < < u.u.u.u.u.u.u.u.u.u.u.u.< < ! ! ! Y Q / < u.u.u.- t.x V S W k >.0.k S K - u.u.- K S l 0.<.k Q S C x t.- u.u.",
"u.u.< < < < < < u.u.u.u.u.u.u.u.u.u.u.u.u.u.u.u.< < < < < < u.u.u.u.u.- - - V L k #.0.2.k - u.u.u.u.- k <.0.+.k Z V - - - u.u.u.",
"u.u.u.u.u.u.u.u.u.u.u.u.u.u.u.u.u.u.u.u.u.u.u.u.u.u.u.u.u.u.u.u.u.u.u.u.u.u.- - T - Y 9.k - u.u.u.u.- k 9.Y - T - - u.u.u.u.u.u.",
"u.u.u.u.u.u.u.u.u.u.u.u.u.u.u.u.u.u.u.u.u.u.u.u.u.u.u.u.u.u.u.u.u.u.u.u.u.u.u.u.- u.- - - u.u.u.u.u.u.- - - u.- u.u.u.u.u.u.u.u."
};
