/* XPM */
static char *BunnyIdle[] = {
/* columns rows colors chars-per-pixel */
"384 32 10 1 ",
"  c #696666",
". c #3E83AF",
"X c #418AB9",
"o c #C9EAFF",
"O c gray93",
"+ c #F1E4EF",
"@ c #F1EEEE",
"# c #F4F3FA",
"$ c white",
"% c None",
/* pixels */
"%%%%%%%%%%%%%%%%%%%%%%%%%%%%%%%%%%%%%%%%%%%%%%%%%%%%%%%%%%%%%%%%%%%%%%%%%%%%%%%%%%%%%%%%%%%%%%%%%%%%%%%%%%%%%%%%%%%%%%%%%%%%%%%%%%%%%%%%%%%%%%%%%%%%%%%%%%%%%%%%%%%%%%%%%%%%%%%%%%%%%%%%%%%%%%%%%%%%%%%%%%%%%%%%%%%%%%%%%%%%%%%%%%%%%%%%%%%%%%%%%%%%%%%%%%%%%%%%%%%%%%%%%%%%%%%%%%%%%%%%%%%%%%%%%%%%%%%%%%%%%%%%%%%%%%%%%%%%%%%%%%%%%%%%%%%%%%%%%%%%%%%%%%%%%%%%%%%%%%%%%%%%%%%%%%%%%%%%%%%%%%%%",
"%%%%%%%%%%%%%%%%%%%%%%%%%%%%%%%%%%%%%%%%%%%%%%%%%%%%%%%%%%%%%%%%%%%%%%%%%%%%%%%%%%%%%%%%%%%%%%%%%%%%%%%%%%%%%%%%%%%%%%%%%%%%%%%%%%%%%%%%%%%%%%%%%%%%%%%%%%%%%%%%%%%%%%%%%%%%%%%%%%%%%%%%%%%%%%%%%%%%%%%%%%%%%%%%%%%%%%%%%%%%%%%%%%%%%%%%%%%%%%%%%%%%%%%%%%%%%%%%%%%%%%%%%%%%%%%%%%%%%%%%%%%%%%%%%%%%%%%%%%%%%%%%%%%%%%%%%%%%%%%%%%%%%%%%%%%%%%%%%%%%%%%%%%%%%%%%%%%%%%%%%%%%%%%%%%%%%%%%%%%%%%%%",
"%%%%%%%%%%%%%%%%%%%%%%%%%%%%%%%%%%%%%%%%%%%%%%%%%%%%%%%%%%%%%%%%%%%%%%%%%%%%%%%%%%%%%%%%%%%%%%%%%%%%%%%%%%%%%%%%%%%%%%%%%%%%%%%%%%%%%%%%%%%%%%%%%%%%%%%%%%%%%%%%%%%%%%%%%%%%%%%%%%%%%%%%%%%%%%%%%%%%%%%%%%%%%%%%%%%%%%%%%%%%%%%%%%%%%%%%%%%%%%%%%%%%%%%%%%%%%%%%%%%%%%%%%%%%%%%%%%%%%%%%%%%%%%%%%%%%%%%%%%%%%%%%%%%%%%%%%%%%%%%%%%%%%%%%%%%%%%%%%%%%%%%%%%%%%%%%%%%%%%%%%%%%%%%%%%%%%%%%%%%%%%%%",
"%%%%%%%%%%%%%%%%%%%%%%%%%%%%%%%%%%%%%%%%%%%%%%%%%%%%%%%%%%%%%%%%%%%%%%%%%%%%%%%%%%%%%%%%%%%%%%%%%%%%%%%%%%%%%%%%%%%%%%%%%%%%%%%%%%%%%%%%%%%%%%%%%%%%%%%%%%%%%%%%%%%%%%%%%%%%%%%%%%%%%%%%%%%%%%%%%%%%%%%%%%%%%%%%%%%%%%%%%%%%%%%%%%%%%%%%%%%%%%%%%%%%%%%%%%%%%%%%%%%%%%%%%%%%%%%%%%%%%%%%%%%%%%%%%%%%%%%%%%%%%%%%%%%%%%%%%%%%%%%%%%%%%%%%%%%%%%%%%%%%%%%%%%%%%%%%%%%%%%%%%%%%%%%%%%%%%%%%%%%%%%%%",
"%%%%%%%%%%%%%%%%%%%%%%%%%%%%%%%%%%%%%%%%%%%%%%%%%%%%%%%%%%%%%%%%%%%%%%%%%%%%%%%%%%%%%%%%%%%%%%%%%%%%%%%%%%%%%%%%%%%%%%%%%%%%%%%%%%%%%%%%%%%%%%%%%%%%%%%%%%%%%%%%%%%%%%%%%%%%%%%%%%%%%%%%%%%%%%%%%%%%%%%%%%%%%%%%%%%%%%%%%%%%%%%%%%%%%%%%%%%%%%%%%%%%%%%%%%%%%%%%%%%%%%%%%%%%%%%%%%%%%%%%%%%%%%%%%%%%%%%%%%%%%%%%%%%%%%%%%%%%%%%%%%%%%%%%%%%%%%%%%%%%%%%%%%%%%%%%%%%%%%%%%%%%%%%%%%%%%%%%%%%%%%%%",
"%%%%%%%%%%%%%%%%%%%%%%%%%%%%%%%%%%%%%%%%%%%%%%%%%%%%%%%%%%%%%%%%%%%%%%%%%%%%%%%%%%%%%%%%%%%%%%%%%%%%%%%%%%%%%%%%%%%%%%%%%%%%%%%%%%%%%%%%%%%%%%%%%%%%%%%%%%%%%%%%%%%%%%%%%%%%%%%%%%%%%%%%%%%%%%%%%%%%%%%%%%%%%%%%%%%%%%%%%%%%%%%%%%%%%%%%%%%%%%%%%%%%%%%%%%%%%%%%%%%%%%%%%%%%%%%%%%%%%%%%%%%%%%%%%%%%%%%%%%%%%%%%%%%%%%%%%%%%%%%%%%%%%%%%%%%%%%%%%%%%%%%%%%%%%%%%%%%%%%%%%%%%%%%%%%%%%%%%%%%%%%%%",
"%%%%%%%%%%%%%%%%%%%%%%%%%%%%%%%%%%%%%%%%%%%%%%%%%%%%%%%%%%%%%%%%%%%%%%%%%%%%%%%%%%%%%%%%%%%%%%%%%%%%%%%%%%%%%%%%%%%%%%%%%%%%%%%%%%%%%%%%%%%%%%%%%%%%%%%%%%%%%%%%%%%%%%%%%%%%%%%%%%%%%%%%%%%%%%%%%%%%%%%%%%%%%%%%%%%%%%%%%%%%%%%%%%%%%%%%%%%%%%%%%%%%%%%%%%%%%%%%%%%%%%%%%%%%%%%%%%%%%%%%%%%%%%%%%%%%%%%%%%%%%%%%%%%%%%%%%%%%%%%%%%%%%%%%%%%%%%%%%%%%%%%%%%%%%%%%%%%%%%%%%%%%%%%%%%%%%%%%%%%%%%%%",
"%%%%%%%%%%%%%%%%%%%%%%%%%%%%%%%%%%%%%%%%%%%%%%%%%%%%%%%%%%%%%%%%%%%%%%%%%%%%%%%%%%%%%%%%%%%%%%%%%%%%%%%%%%%%%%%%%%%%%%%%%%%%%%%%%%%%%%%%%%%%%%%%%%%%%%%%%%%%%%%%%%%%%%%%%%%%%%%%%%%%%%%%%%%%%%%%%%%%%%%%%%%%%%%%%%%%%%%%%%%%%%%%%%%%%%%%%%%%%%%%%%%%%%%%%%%%%%%%%%%%%%%%%%%%%%%%%%%%%%%%%%%%%%%%%%%%%%%%%%%%%%%%%%%%%%%%%%%%%%%%%%%%%%%%%%%%%%%%%%%%%%%%%%%%%%%%%%%%%%%%%%%%%%%%%%%%%%%%%%%%%%%%",
"%%%%%%%%%%%%%%%%%%%%%%%%%%%%%%%%%%%%%%%%%%%%%%%%%%%%%%%%%%%%%%%%%%%%%%%%%%%%%%%%%%%%%%%%%%%%%%%%%%%%%%%%%%%%%%%%%%%%%%%%%%%%%%%%%%%%%%%%%%%%%%%%%%%%%%%%%%%%%%%%%%%%%%%%%%%%%%%%%%%%%%%%%%%%%%%%%%%%%%%%%%%%%%%%%%%%%%%%%%%%%%%%%%%%%%%%%%%%%%%%%%%%%%%%%%%%%%%%%%%%%%%%%%%%%%%%%%%%%%%%%%%%%%%%%%%%%%%%%%%%%%%%%%%%%%%%%%%%%%%%%%%%%%%%%%%%%%%%%%%%%%%%%%%%%%%%%%%%%%%%%%%%%%%%%%%%%%%%%%%%%%%%",
"%%%%%%%%%%%%%%%%%%%%%%%%%%%%%%%%%%%%%%%%%%%%%%%%%%%%%%%%%%%%%%%%%%%%%%%%%%%%%%%%%%%%%%%%%%%%%%%%%%%%%%%%%%%%%%%%%%%%%%%%%%%%%%%%%%%%%%%%%%%%%%%%%%%%%%%%%%%%%%%%%%%%%%%%%%%%%%%%%%%%%%%%%%%%%%%%%%%%%%%%%%%%%%%%%%%%%%%%%%%%%%%%%%%%%%%%%%%%%%%%%%%%%%%%%%%%%%%%%%%%%%%%%%%%%%%%%%%%%%%%%%%%%%%%%%%%%%%%%%%%%%%%%%%%%%%%%%%%%%%%%%%%%%%%%%%%%%%%%%%%%%%%%%%%%%%%%%%%%%%%%%%%%%%%%%%%%%%%%%%%%%%%",
"%%%%%%%%%%%%%%%%%%%%%%%%%%%%%%%%%%%%%%%%%%%%%%%%%%%%%%%%%%%%%%%%%%%%%%%%%%%%%%%%%%%%%%%%%%%%%%%%%%%%%%%%%%%%%%%%%%%%%%%%%%%%%%%%%%%%%%%%%%%%%%%%%%%%%%%%%%%%%%%%%%%%%%%%%%%%%%%%%%%%%%%%%%%%%%%%%%%%%%%%%%%%%%%%%%%%%%%%%%%%%%%%%%%%%%%%%%%%%%%%%%%%%%%%%%%%%%%%%%%%%%%%%%%%%%%%%%%%%%%%%%%%%%%%%%%%%%%%%%%%%%%%%%%%%%%%%%%%%%%%%%%%%%%%%%%%%%%%%%%%%%%%%%%%%%%%%%%%%%%%%%%%%%%%%%%%%%%%%%%%%%%%",
"%%%%%%%%%%%%%%%%%%%%%%%%%%%%%%%%%%%%%%%%%%%%%%%%%%%%%%%%%%%%%%%%%%%%%%%%%%%%%%%%%%%%%%%%%%%%%%%%%%%%%%%%%%%%%%%%%%%%%%%%%%%%%%%%%%%%%%%%%%%%%%%%%%%%%%%%%%%%%%%%%%%%%%%%%%%%%%%%%%%%%%%%%%%%%%%%%%%%%%%%%%%%%%%%%%%%%%%%%%%%%%%%%%%%%%%%%%%%%%%%%%%%%%%%%%%%%%%%%%%%%%%%%%%%%%%%%%%%%%%%%%%%%%%%%%%%%%%%%%%%%%%%%%%%%%%%%%%%%%%%%%%%%%%%%%%%%%%%%%%%%%%%%%%%%%%%%%%%%%%%%%%%%%%%%%%%%%%%%%%%%%%%",
"%%%%%%%%%%%%%%%%%%%%%%%%%%%%%%%%%%%%%%%%%%%%%%%%%%%%%%%%%%%%%%%%%%%%%%%%%%%%%%%%%%%%%%%%%%%%%%%%%%%%%%%%%%%%%%%%%%%%%%%%%%%%%%%%%%%%%%%%%%%%%%%%%%%%%%%%%%%%%%%%%%%%%%%%%%%%%%%%%%%%%%%%%%%%%%%%%%%%%%%%%%%%%%%%%%%%%%%%%%%%%%%%%%%%%%%%%%%%%%%%%%%%%%%%%%%%%%%%%%%%%%%%%%%%%%%%%%%%%%%%%%%%%%%%%%%%%%%%%%%%%%%%%%%%%%%%%%%%%%%%%%%%%%%%%%%%%%%%%%%%%%%%%%%%%%%%%%%%%%%%%%%%%%%%%%%%%%%%%%%%%%%%",
"%%%%%%%%%%%%%%%%%%%%%%%%%%%%%%%%%%%%%%%%%%%%%%%%%%%%%%%%%%%%%%%%%%%%%%%%%%%%%%%%%%%%%%%%%%%%%%%%%%%%%%%%%%%%%%%%%%%%%%%%%%%%%%%%%%%%%%%%%%%%%%%%%%%%%%%%%%%%%%%%%%%%%%%%%%%%%%%%%%%%%%%%%%%%%%%%%%%%%%%%%%%%%%%%%%%%%%%%%%%%%%%%%%%%%%%%%%%%%%%%%%%%%%%%%%%%%%%%%%%%%%%%%%%%%%%%%%%%%%%%%%%%%%%%%%%%%%%%%%%%%%%%%%%%%%%%%%%%%%%%%%%%%%%%%%%%%%%%%%%%%%%%%%%%%%%%%%%%%%%%%%%%%%%%%%%%%%%%%%%%%%%%",
"%%%%%%%%%%%%%%%%%%%%%%%%%%%%%%%%%%%%%%%%%%%%%%%%%%%%%%%%%%%%%%%%%%%%%%%%%%%%%%%%%%%%%%%%%%%%%%%%%%%%%%%%%%%%%%%%%%%%%%%%%%%%%%%%%%%%%%%%%%%%%%%%%%%%%%%%%%%%%%%%%%%%%%%%%%%%%%%%%%%%%%%%%%%%%%%%%%%%%%%%%%%%%%%%%%%%%%%%%%%%%%%%%%%%%%%%%%%%%%%%%%%%%%%%%%%%%%%%%%%%%%%%%%%%%%%%%%%%%%%%%%%%%%%%%%%%%%%%%%%%%%%%%%%%%%%%%%%%%%%%%%%%%%%%%%%%%%%%%%%%%%%%%%%%%%%%%%%%%%%%%%%%%%%%%%%%%%%%%%%%%%%%",
"%%%%%%%%%%%%%%%%%%%%%%%%%%%%%%%%%%%%%%%%%%%%%%%%%%%%%%%%%%%%%%%%%%%%%%%%%%%%%%%%%%%%%%%%%%%%%%%%%%%%%%%%%%%%%%%%%%%%%%%%%%%%%%%%%%%%%%%%%%%%%%%%%%%%%%%%%%%%%%%%%%%%%%%%%%%%%%%%%%%%%%%%%%%%%%%%%%%%%%%%%%%%%%%%%%%%%%%%%%%%%%%%%%%%%%%%%%%%%%%%%%%%%%%%%%%%%%%%%%%%%%%%%%%%%%%%%%%%%%%%%%%%%%%%%%%%%%%%%%%%%%%%%%%%%%%%%%%%%%%%%%%%%%%%%%%%%%%%%%%%%%%%%%%%%%%%%%%%%%%%%%%%%%%%%%%%%%%%%%%%%%%%",
"%%%%%%%%%%%%%%%%$%$%%%%%%%%%%%%%%%%%%%%%%%%%%%%%$%$%%%%%%%%%%%%%%%%%%%%%%%%%%%%%$%$%%%%%%%%%%%%%%%%%%%%%%%%%%%%%%%%%%%%%%%%%%%%%%%%%%%%%%%%%%%%%%%%%%%%%%%%%%%%%%%%%%%%%%%%%%%%%%%%%%%%%%%%%%%%%%%%%%%%%%%%%%%%%$%$%%%%%%%%%%%%%%%%%%%%%%%%%%%%%$%$%%%%%%%%%%%%%%%%%%%%%%%%%%%%%$%$%%%%%%%%%%%%%%%%%%%%%%%%%%%%%%%%%%%%%%%%%%%%%%%%%%%%%%%%%%%%%%%%%%%%%%%%%%%%%%%%%%%%%%%%%%%%%%%%%%%%%%%%%%%%%",
"%%%%%%%%%%%%%%%$+$+$%%%%%%%%%%%%%%%%%%%%%%%%%%%$+$+$%%%%%%%%%%%%%%%%%%%%%%%%%%%$+$+$%%%%%%%%%%%%%%%%%%%%%%%%%%%%$%$%%%%%%%%%%%%%%%%%%%%%%%%%%%%%$%$%%%%%%%%%%%%%%%%%%%%%%%%%%%%%$%$%%%%%%%%%%%%%%%%%%%%%%%%%%%%$+$+$%%%%%%%%%%%%%%%%%%%%%%%%%%%$+$+$%%%%%%%%%%%%%%%%%%%%%%%%%%%$+$+$%%%%%%%%%%%%%%%%%%%%%%%%%%%%$%$%%%%%%%%%%%%%%%%%%%%%%%%%%%%%$%$%%%%%%%%%%%%%%%%%%%%%%%%%%%%%$%$%%%%%%%%%%%%%",
"%%%%%%%%%%%%%%%$+$$+$%%%%%%%%%%%%%%%%%%%%%%%%%%$+$$+$%%%%%%%%%%%%%%%%%%%%%%%%%%$+$$+$%%%%%%%%%%%%%%%%%%%%%%%%%%$+$+$%%%%%%%%%%%%%%%%%%%%%%%%%%%$+$+$%%%%%%%%%%%%%%%%%%%%%%%%%%%$+$+$%%%%%%%%%%%%%%%%%%%%%%%%%%%$+$$+$%%%%%%%%%%%%%%%%%%%%%%%%%%$+$$+$%%%%%%%%%%%%%%%%%%%%%%%%%%$+$$+$%%%%%%%%%%%%%%%%%%%%%%%%%%$+$+$%%%%%%%%%%%%%%%%%%%%%%%%%%%$+$+$%%%%%%%%%%%%%%%%%%%%%%%%%%%$+$+$%%%%%%%%%%%%",
"%%%%%%%%%%%%%%%$++$+$%%%%%%%%%%%%%%%%%%%%%%%%%%$++$+$%%%%%%%%%%%%%%%%%%%%%%%%%%$++$+$%%%%%%%%%%%%%%%%%%%%%%%%%%$+$$+$%%%%%%%%%%%%%%%%%%%%%%%%%%$+$$+$%%%%%%%%%%%%%%%%%%%%%%%%%%$+$$+$%%%%%%%%%%%%%%%%%%%%%%%%%%$++$+$%%%%%%%%%%%%%%%%%%%%%%%%%%$++$+$%%%%%%%%%%%%%%%%%%%%%%%%%%$++$+$%%%%%%%%%%%%%%%%%%%%%%%%%%$+$$+$%%%%%%%%%%%%%%%%%%%%%%%%%%$+$$+$%%%%%%%%%%%%%%%%%%%%%%%%%%$+$$+$%%%%%%%%%%%",
"%%%%%%%%%%%%%%%%$+$+$%%%%%%%%%%%%%%%%%%%%%%%%%%%$+$+$%%%%%%%%%%%%%%%%%%%%%%%%%%%$+$+$%%%%%%%%%%%%%%%%%%%%%%%%%%$++$+$%%%%%%%%%%%%%%%%%%%%%%%%%%$++$+$%%%%%%%%%%%%%%%%%%%%%%%%%%$++$+$%%%%%%%%%%%%%%%%%%%%%%%%%%%$+$+$%%%%%%%%%%%%%%%%%%%%%%%%%%%$+$+$%%%%%%%%%%%%%%%%%%%%%%%%%%%$+$+$%%%%%%%%%%%%%%%%%%%%%%%%%%$++$+$%%%%%%%%%%%%%%%%%%%%%%%%%%$++$+$%%%%%%%%%%%%%%%%%%%%%%%%%%$++$+$%%%%%%%%%%%",
"%%%%%%%%%%%%%%%%$+$+$%%%%%%%%%%%%%%%%%%%%%%%%%%%$+$+$%%%%%%%%%%%%%%%%%%%%%%%%%%%$+$+$%%%%%%%%%%%%%%%%%%%%%%%%%%%$+$+$%%%%%%%%%%%%%%%%%%%%%%%%%%%$+$+$%%%%%%%%%%%%%%%%%%%%%%%%%%%$+$+$%%%%%%%%%%%%%%%%%%%%%%%%%%%$+$+$%%%%%%%%%%%%%%%%%%%%%%%%%%%$+$+$%%%%%%%%%%%%%%%%%%%%%%%%%%%$+$+$%%%%%%%%%%%%%%%%%%%%%%%%%%%$+$+$%%%%%%%%%%%%%%%%%%%%%%%%%%%$+$+$%%%%%%%%%%%%%%%%%%%%%%%%%%%$+$+$%%%%%%%%%%%",
"%%%%%%%%%%%%%%%%%$+$$$$%%%%%%%%%%%%%%%%%%%%%%%%%%$+$$$$%%%%%%%%%%%%%%%%%%%%%%%%%%$+$$$$%%%%%%%%%%%%%%%%%%%%%%%%%$+$+$%%%%%%%%%%%%%%%%%%%%%%%%%%%$+$+$%%%%%%%%%%%%%%%%%%%%%%%%%%%$+$+$%%%%%%%%%%%%%%%%%%%%%%%%%%%%$+$$$$%%%%%%%%%%%%%%%%%%%%%%%%%%$+$$$$%%%%%%%%%%%%%%%%%%%%%%%%%%$+$$$$%%%%%%%%%%%%%%%%%%%%%%%%%$+$+$%%%%%%%%%%%%%%%%%%%%%%%%%%%$+$+$%%%%%%%%%%%%%%%%%%%%%%%%%%%$+$+$%%%%%%%%%%%",
"%%%%%%%%%%$$$%%%$$$$$$$$%%%%%%%%%%%%%%%%%%$$$%%%$$$$$$$$%%%%%%%%%%%%%%%%%%$$$%%%$$$$$$$$%%%%%%%%%%%%%%%%%%$$$%%%%$+$$$$%%%%%%%%%%%%%%%%%%%$$$%%%%$+$$$$%%%%%%%%%%%%%%%%%%%$$$%%%%$+$$$$%%%%%%%%%%%%%%%%%%%$$$%%%$$$$$$$$%%%%%%%%%%%%%%%%%%$$$%%%$$$$$$$$%%%%%%%%%%%%%%%%%%$$$%%%$$$$$$$$%%%%%%%%%%%%%%%%%%$$$%%%%$+$$$$%%%%%%%%%%%%%%%%%%%$$$%%%%$+$$$$%%%%%%%%%%%%%%%%%%%$$$%%%%$+$$$$%%%%%%%%%",
"%%%%%%%%%$$$$$$$$$$$$o.$$%%%%%%%%%%%%%%%%$$$$$$$$$$$$o.$$%%%%%%%%%%%%%%%%$$$$$$$$$$$$o.$$%%%%%%%%%%%%%%%%$$$$$$%$$$$$$$$%%%%%%%%%%%%%%%%%$$$$$$%$$$$$$$$%%%%%%%%%%%%%%%%%$$$$$$%$$$$$$$$%%%%%%%%%%%%%%%%%$$$$$$$$$$$$o.$$%%%%%%%%%%%%%%%%$$$$$$$$$$$$o.$$%%%%%%%%%%%%%%%%$$$$$$$$$$$$o.$$%%%%%%%%%%%%%%%%$$$$$$%$$$$$$$$%%%%%%%%%%%%%%%%%$$$$$$%$$$$$$$$%%%%%%%%%%%%%%%%%$$$$$$%$$$$$$$$%%%%%%%%",
"%%%%%$%%$$$$$$$$$$$$$.X$$%%%%%%%%%%%%$%%$$$$$$$$$$$$$.X$$%%%%%%%%%%%%$%%$$$$$$$$$$$$$.X$$%%%%%%%%%%%%$%%$$$$$$$$$$$$$$$$$%%%%%%%%%%%%$%%$$$$$$$$$$$$$$$$$%%%%%%%%%%%%$%%$$$$$$$$$$$$$o.$$%%%%%%%%%%%%$%%$$$$$$$$$$$$$.X$$%%%%%%%%%%%%$%%$$$$$$$$$$$$$.X$$%%%%%%%%%%%%$%%$$$$$$$$$$$$$.X$$%%%%%%%%%%%%$%%$$$$$$$$$$$$$o.$$%%%%%%%%%%%%$%%$$$$$$$$$$$$$o.$$%%%%%%%%%%%%$%%$$$$$$$$$$$$$o.$$%%%%%%%",
"%%%%$##O$$$$$$$$$$$$$$$$$%%%%%%%%%%%$##O$$$$$$$$$$$$$$$$$%%%%%%%%%%%$##O$$$$$$$$$$$$$$$$$%%%%%%%%%%%$##O$$$$$$$$$$$$$.X$$%%%%%%%%%%%$##O$$$$$$$$$$$$$  $$%%%%%%%%%%%$##O$$$$$$$$$$$$$.X$$%%%%%%%%%%%$##O$$$$$$$$$$$$$$$$$%%%%%%%%%%%$##O$$$$$$$$$$$$$$$$$%%%%%%%%%%%$##O$$$$$$$$$$$$$$$$$%%%%%%%%%%%$##O$$$$$$$$$$$$$.X$$%%%%%%%%%%%$##O$$$$$$$$$$$$$.X$$%%%%%%%%%%%$##O$$$$$$$$$$$$$.X$$%%%%%%%",
"%%%%###$$$$$$$$$$$$$$$$$%%%%%%%%%%%%###$$$$$$$$$$$$$$$$$%%%%%%%%%%%%###$$$$$$$$$$$$$$$$$%%%%%%%%%%%%###$$$$$$$$$$$$$$$$$$%%%%%%%%%%%###$$$$$$$$$$$$$$$$$$%%%%%%%%%%%###$$$$$$$$$$$$$$$$$$%%%%%%%%%%%###$$$$$$$$$$$$$$$$$%%%%%%%%%%%%###$$$$$$$$$$$$$$$$$%%%%%%%%%%%%###$$$$$$$$$$$$$$$$$%%%%%%%%%%%%###$$$$$$$$$$$$$$$$$$%%%%%%%%%%%###$$$$$$$$$$$$$$$$$$%%%%%%%%%%%###$$$$$$$$$$$$$$$$$$%%%%%%%",
"%%%%%##$$$$$$$$$$$$$$$$%%%%%%%%%%%%%%##$$$$$$$$$$$$$$$$%%%%%%%%%%%%%%##$$$$$$$$$$$$$$$$%%%%%%%%%%%%%%##$$$$$$$$$$$$$$$$$%%%%%%%%%%%%%##$$$$$$$$$$$$$$$$$%%%%%%%%%%%%%##$$$$$$$$$$$$$$$$$%%%%%%%%%%%%%##$$$$$$$$$$$$$$$$%%%%%%%%%%%%%%##$$$$$$$$$$$$$$$$%%%%%%%%%%%%%%##$$$$$$$$$$$$$$$$%%%%%%%%%%%%%%##$$$$$$$$$$$$$$$$$%%%%%%%%%%%%%##$$$$$$$$$$$$$$$$$%%%%%%%%%%%%%##$$$$$$$$$$$$$$$$$%%%%%%%%",
"%%%%%%%O$$$@@$$$$$$$$%%%%%%%%%%%%%%%%%%O$$$@@$$$$$$$$%%%%%%%%%%%%%%%%%%O$$$@@$$$$$$$$%%%%%%%%%%%%%%%%%%O$$$@@$$$$$$$$$$%%%%%%%%%%%%%%%%O$$$@@$$$$$$$$$$%%%%%%%%%%%%%%%%O$$$@@$$$$$$$$$$%%%%%%%%%%%%%%%%O$$$@@$$$$$$$$%%%%%%%%%%%%%%%%%%O$$$@@$$$$$$$$%%%%%%%%%%%%%%%%%%O$$$@@$$$$$$$$%%%%%%%%%%%%%%%%%%O$$$@@$$$$$$$$$$%%%%%%%%%%%%%%%%O$$$@@$$$$$$$$$$%%%%%%%%%%%%%%%%O$$$@@$$$$$$$$$$%%%%%%%%%",
"%%%%%%%%$$$$$@$$$$$$$$%%%%%%%%%%%%%%%%%%$$$$$@$$$$$$$$%%%%%%%%%%%%%%%%%%$$$$$@$$$$$$$$%%%%%%%%%%%%%%%%%%$$$$$@$$$$$$$$%%%%%%%%%%%%%%%%%%$$$$$@$$$$$$$$%%%%%%%%%%%%%%%%%%$$$$$@$$$$$$$$%%%%%%%%%%%%%%%%%%$$$$$@$$$$$$$$%%%%%%%%%%%%%%%%%%$$$$$@$$$$$$$$%%%%%%%%%%%%%%%%%%$$$$$@$$$$$$$$%%%%%%%%%%%%%%%%%%$$$$$@$$$$$$$$%%%%%%%%%%%%%%%%%%$$$$$@$$$$$$$$%%%%%%%%%%%%%%%%%%$$$$$@$$$$$$$$%%%%%%%%%%",
"%%%%%%%%%$$$$$@$$$$@@$$$%%%%%%%%%%%%%%%%%$$$$$@$$$$@@$$$%%%%%%%%%%%%%%%%%$$$$$@$$$$@@$$$%%%%%%%%%%%%%%%%%$$$$$@$$$$@@$$$%%%%%%%%%%%%%%%%%$$$$$@$$$$@@$$$%%%%%%%%%%%%%%%%%$$$$$@$$$$@@$$$%%%%%%%%%%%%%%%%%$$$$$@$$$$@@$$$%%%%%%%%%%%%%%%%%$$$$$@$$$$@@$$$%%%%%%%%%%%%%%%%%$$$$$@$$$$@@$$$%%%%%%%%%%%%%%%%%$$$$$@$$$$@@$$$%%%%%%%%%%%%%%%%%$$$$$@$$$$@@$$$%%%%%%%%%%%%%%%%%$$$$$@$$$$@@$$$%%%%%%%%"
};
