/* XPM */
static char *fence_tiles[] = {
/* columns rows colors chars-per-pixel */
"128 128 16 1 ",
"  c #261F1C",
". c #2D2724",
"X c #322B28",
"o c #64342F",
"O c #633A35",
"+ c #71413B",
"@ c #A3673F",
"# c #AD683A",
"$ c #BB7547",
"% c #BF8F57",
"& c #CD9756",
"* c #DBA463",
"= c #D5B789",
"- c #E6C48F",
"; c #F4D29C",
": c None",
/* pixels */
"::::::::::::::::::::::::::::::::::::::::::::::::::::::::::::::::::::::::::::::::::::::::::::::::::::::::::::::::::::::::::::::::",
"::::::::::::::XX::::::::::::::::::::::::::::::XX::::::::::::::::::::::::::::::XX::::::::::::::::::::::::::::::XX::::::::::::::::",
":::::::::::::X;;X::::::::::::::::::::::::::::X;;X::::::::::::::::::::::::::::X;;X::::::::::::::::::::::::::::X;;X:::::::::::::::",
"::::::::::::X**;;X::::::::::::::::::::::::::X**;;X::::::::::::::::::::::::::X**;;X::::::::::::::::::::::::::X**;;X::::::::::::::",
":::::::::::X;*;**;X::::::::::::::::::::::::X;*;**;X::::::::::::::::::::::::X;*;**;X::::::::::::::::::::::::X;*;**;X:::::::::::::",
"::::::::::X*;*;****X::::::::::::::::::::::X*;*;****X::::::::::::::::::::::X*;*;****X::::::::::::::::::::::X*;*;****X::::::::::::",
":::::::::X*;**;*$*$*X::::::::::::::::::::X*;**;*$*$*X::::::::::::::::::::X*;**;*$*$*X::::::::::::::::::::X*;**;*$*$*X:::::::::::",
"::::::::X*;$**;;***$*X::::::::::::::::::X*;$**;;***$*X::::::::::::::::::X*;$**;;***$*X::::::::::::::::::X*;$**;;***$*X::::::::::",
"::::::::X$$**;;;*$*$*X::::::::::::::::::X$$**;;;*$*$*X::::::::::::::::::X$$**;;;*$*$*X::::::::::::::::::X$$**;;;*$*$*X::::::::::",
"::::::::X*$**;;;*$**XX::::::::::::::::::X*$**;;;*$**XX::::::::::::::::::X*$**;;;*$**XX::::::::::::::::::X*$**;;;*$**XX::::::::::",
"::::::::XXXX$;;;**$X+X::::::::::::::::::XXXX$;;;**$X+X::::::::::::::::::XXXX$;;;**$XXX::::::::::::::::::XXXX$;;;**$XXX::::::::::",
"::::::::XX+XXX$$XXXX+X::::::::::::::::::XX+XXX$$XXXX+X::::::::::::::::::XX+XXX$$XXXXXX::::::::::::::::::XX+XXX$$XXXXXX::::::::::",
"::::::::XX++X++++X$$XXXXXXXXXXXXXXXXXXXXXX++X++++X$$XXXXXXXXXXXXXXXXXXXXXX++X+++++X$XX::::::::::::::::::XX++X+++++X$XX::::::::::",
"::::::::XX$$++XX+X$$X**;;**;;;****;;**;*;X$$X+XX+X$$X**;;**;;;****;;**;*;X$$X+XX++$$XX::::::::::::::::::XX$$++XX++$$XX::::::::::",
"::::::::XX$$+X;;XX$$X++++$$$+++++++++++++X$$+X;;XX$$X++++$$$+++++++++++++X$$+X;;X+$$XX::::::::::::::::::XX$$+X;;X+$$XX::::::::::",
"::::::::XX+*+X;;XX$$X$$$$+++$$++$$++$$$$$X+*+X;;XX$$X$$$$+++$$++$$++$$$$$X+*+X;;X+$$$X::::::::::::::::::XX+*+X;;X+$$$X::::::::::",
"::::::::X$X*+X*;X$$+XXXXX+++++++++$$++XXXXX*+X*;X$$+$XXXX+++++++++$$++XXXXX*+X*;X$$+$X::::::::::::::::::X$X*+X*;X$$+$X::::::::::",
"::::::::X$X*+X*;X*$+$XXXXXXXXXXXXXXXXXXXX$X*+X*;X*$+$XXXXXXXXXXXXXXXXXXXX$X*+X*;X*$+$X::::::::::::::::::X$X*+X*;X*$+$X::::::::::",
"::::::::X$+**X*;X*$+$X::::::::::::::::::X$+**X*;X*$+$X::::::::::::::::::X$+**X*;X*$+$X::::::::::::::::::X$+**X*;X*$+$X::::::::::",
"::::::::X$XX$X*;X$*++X::::::::::::::::::X$XX$X*;X$*++X::::::::::::::::::X$XX$X*;X$*++X::::::::::::::::::X$XX$X*;X$*++X::::::::::",
"::::::::X$X+$X**X$*++X::::::::::::::::::X$X+$X**X$*++X::::::::::::::::::X$X+$X**X$*++X::::::::::::::::::X$X+$X**X$*++X::::::::::",
"::::::::X+X+$X**X$*++X::::::::::::::::::X+X+$X**X$*++X::::::::::::::::::X+X+$X**X$*++X::::::::::::::::::X+X+$X**X$*++X::::::::::",
"::::::::X+X++X;*X$*XXXXXXXXXXXXXXXXXXXXXX+X++X;*X$*X+XXXXXXXXXXXXXXXXXXXXXX++X;*X$*X+X::::::::::::::::::X+X++X;*X$*X+X::::::::::",
"::::::::X+X++X;*X$*XX**;;;*********;**;**XX++X;*X$*XX**;;;*********;**;**XX++X;*X$*X+X::::::::::::::::::X+X++X;*X$*X+X::::::::::",
"::::::::X++X+X;*X$+X++++++++$$++++++$$$$$X+X+X;*X$+X++++++++$$++++++$$$$$X+X+X;*X$+X+X::::::::::::::::::X++X+X;*X$+X+X::::::::::",
"::::::::XX+X+X;*X++X$$$$$$$$++++$$$$$++++X+X+X;*X++X$$$$$$$$++++$$$$$++++X+X+X;*X++X+X::::::::::::::::::XX+X+X;*X++X+X::::::::::",
"::::::::XXXX+X*;X+XXXXXX++++++++++++++XXXXXX+X*;X+XXXXXX++++++++++++++XXXXXX+X*;X+XX+X::::::::::::::::::XXXX+X*;X+XX+X::::::::::",
"::::::::XXXX+X*;X+X+XXXXXXXXXXXXXXXXXXXXXXXX+X*;X+X+XXXXXXXXXXXXXXXXXXXXXXXX+X*;X+X+XX::::::::::::::::::XXXX+X*;X+X+XX::::::::::",
":::::::::XXX+X$;X+X+X::::::::::::::::::::XXX+X$;X+X+X::::::::::::::::::::XXX+X$;X+X+X::::::::::::::::::::XXX+X$;X+X+X:::::::::::",
":::::::::XXXXX$*XXXXX::::::::::::::::::::XXXXX$*XXXXX::::::::::::::::::::XXXXX$*XXXXX::::::::::::::::::::XXXXX$*XXXXX:::::::::::",
"::::::::::XXXX$*XXXX::::::::::::::::::::::XXXX$*XXXX::::::::::::::::::::::XXXX$*XXXX::::::::::::::::::::::XXXX$*XXXX::::::::::::",
":::::::::::::X$$X::::::::::::::::::::::::::::X$$X::::::::::::::::::::::::::::X$$X::::::::::::::::::::::::::::X$$X:::::::::::::::",
":::::::::::::X$$X::::::::::::::::::::::::::::X$$X::::::::::::::::::::::::::::X$$X::::::::::::::::::::::::::::X$$X:::::::::::::::",
":::::::::::::XXXX::::::::::::::::::::::::::::XXXX::::::::::::::::::::::::::::XXXX::::::::::::::::::::::::::::XXXX:::::::::::::::",
":::::::::::::X;;X::::::::::::::::::::::::::::X;;X::::::::::::::::::::::::::::X;;X::::::::::::::::::::::::::::X;;X:::::::::::::::",
"::::::::::::X**;;X::::::::::::::::::::::::::X**;;X::::::::::::::::::::::::::X**;;X::::::::::::::::::::::::::X**;;X::::::::::::::",
":::::::::::X;*;**;X::::::::::::::::::::::::X;*;**;X::::::::::::::::::::::::X;*;**;X::::::::::::::::::::::::X;*;**;X:::::::::::::",
"::::::::::X*;*;****X::::::::::::::::::::::X*;*;****X::::::::::::::::::::::X*;*;****X::::::::::::::::::::::X*;*;****X::::::::::::",
":::::::::X*;**;*$*$*X::::::::::::::::::::X*;**;*$*$*X::::::::::::::::::::X*;**;*$*$*X::::::::::::::::::::X*;**;*$*$*X:::::::::::",
"::::::::X*;$**;;***$*X::::::::::::::::::X*;$**;;***$*X::::::::::::::::::X*;$**;;***$*X::::::::::::::::::X*;$**;;***$*X::::::::::",
"::::::::X$$**;;;*$*$*X::::::::::::::::::X$$**;;;*$*$*X::::::::::::::::::X$$**;;;*$*$*X::::::::::::::::::X$$**;;;*$*$*X::::::::::",
"::::::::X*$**;;;*$**XX::::::::::::::::::X*$**;;;*$**XX::::::::::::::::::X*$**;;;*$**XX::::::::::::::::::X*$**;;;*$**XX::::::::::",
"::::::::XXXX$;;;**$X+X::::::::::::::::::XXXX$;;;**$X+X::::::::::::::::::XXXX$;;;**$XXX::::::::::::::::::XXXX$;;;**$XXX::::::::::",
"::::::::XX+XXX$$XXXX+X::::::::::::::::::XX+XXX$$XXXX+X::::::::::::::::::XX+XXX$$XXXXXX::::::::::::::::::XX+XXX$$XXXXXX::::::::::",
"::::::::XX++X++++X$$XXXXXXXXXXXXXXXXXXXXXX++X++++X$$XXXXXXXXXXXXXXXXXXXXXX++X+++++X$XX::::::::::::::::::XX++X+++++X$XX::::::::::",
"::::::::XX$$++XX+X$$X**;;**;;;****;;**;*;X$$X+XX+X$$X**;;**;;;****;;**;*;X$$X+XX++$$XX::::::::::::::::::XX$$++XX++$$XX::::::::::",
"::::::::XX$$+X;;XX$$X++++$$$+++++++++++++X$$+X;;XX$$X++++$$$+++++++++++++X$$+X;;X+$$XX::::::::::::::::::XX$$+X;;X+$$XX::::::::::",
"::::::::XX+*+X;;XX$$X$$$$+++$$++$$++$$$$$X+*+X;;XX$$X$$$$+++$$++$$++$$$$$X+*+X;;X+$$$X::::::::::::::::::XX+*+X;;X+$$$X::::::::::",
"::::::::X$X*+X*;X$$+XXXXX+++++++++$$++XXXXX*+X*;X$$+$XXXX+++++++++$$++XXXXX*+X*;X$$+$X::::::::::::::::::X$X*+X*;X$$+$X::::::::::",
"::::::::X$X*+X*;X*$+$XXXXXXXXXXXXXXXXXXXX$X*+X*;X*$+$XXXXXXXXXXXXXXXXXXXX$X*+X*;X*$+$X::::::::::::::::::X$X*+X*;X*$+$X::::::::::",
"::::::::X$+**X*;X*$+$X::::::::::::::::::X$+**X*;X*$+$X::::::::::::::::::X$+**X*;X*$+$X::::::::::::::::::X$+**X*;X*$+$X::::::::::",
"::::::::X$XX$X*;X$*++X::::::::::::::::::X$XX$X*;X$*++X::::::::::::::::::X$XX$X*;X$*++X::::::::::::::::::X$XX$X*;X$*++X::::::::::",
"::::::::X$X+$X**X$*++X::::::::::::::::::X$X+$X**X$*++X::::::::::::::::::X$X+$X**X$*++X::::::::::::::::::X$X+$X**X$*++X::::::::::",
"::::::::X+X+$X**X$*++X::::::::::::::::::X+X+$X**X$*++X::::::::::::::::::X+X+$X**X$*++X::::::::::::::::::X+X+$X**X$*++X::::::::::",
"::::::::X+X++X;*X$*XXXXXXXXXXXXXXXXXXXXXX+X++X;*X$*X+XXXXXXXXXXXXXXXXXXXX+X++X;*X$*X+X::::::::::::::::::X+X++X;*X$*X+X::::::::::",
"::::::::X+X++X;*X$*XX**;;;*********;**;**XX++X;*X$*XX**;;;*********;**;**XX++X;*X$*X+X::::::::::::::::::X+X++X;*X$*X+X::::::::::",
"::::::::X++X+X;*X$+X++++++++$$++++++$$$$$X+X+X;*X$+X++++++++$$++++++$$$$$X+X+X;*X$+X+X::::::::::::::::::X++X+X;*X$+X+X::::::::::",
"::::::::XX+X+X;*X++X$$$$$$$$++++$$$$$++++X+X+X;*X++X$$$$$$$$++++$$$$$++++X+X+X;*X++X+X::::::::::::::::::XX+X+X;*X++X+X::::::::::",
"::::::::XXXX+X*;X+XXXXXX++++++++++++++XXXXXX+X*;X+XXXXXX++++++++++++++XXXXXX+X*;X+XX+X::::::::::::::::::XXXX+X*;X+XX+X::::::::::",
"::::::::XXXX+X*;X+X+XXXXXXXXXXXXXXXXXXXXXXXX+X*;X+X+XXXXXXXXXXXXXXXXXXXXXXXX+X*;X+X+XX::::::::::::::::::XXXX+X*;X+X+XX::::::::::",
":::::::::XXX+X$;X+X+X::::::::::::::::::::XXX+X$;X+X+X::::::::::::::::::::XXX+X$;X+X+X::::::::::::::::::::XXX+X$;X+X+X:::::::::::",
":::::::::XXXXX$*XXXXX::::::::::::::::::::XXXXX$*XXXXX::::::::::::::::::::XXXXX$*XXXXX::::::::::::::::::::XXXXX$*XXXXX:::::::::::",
"::::::::::XXXX$*XXXX::::::::::::::::::::::XXXX$*XXXX::::::::::::::::::::::XXXX$*XXXX::::::::::::::::::::::XXXX$*XXXX::::::::::::",
":::::::::::::X$$X::::::::::::::::::::::::::::X$$X::::::::::::::::::::::::::::X$$X::::::::::::::::::::::::::::X$$X:::::::::::::::",
":::::::::::::X$$X::::::::::::::::::::::::::::X$$X::::::::::::::::::::::::::::X$$X::::::::::::::::::::::::::::X$$X:::::::::::::::",
":::::::::::::XXXX::::::::::::::::::::::::::::XXXX::::::::::::::::::::::::::::XXXX::::::::::::::::::::::::::::XXXX:::::::::::::::",
":::::::::::::X;;X::::::::::::::::::::::::::::X;;X::::::::::::::::::::::::::::X;;X::::::::::::::::::::::::::::X;;X:::::::::::::::",
"::::::::::::X**;;X::::::::::::::::::::::::::X**;;X::::::::::::::::::::::::::X**;;X::::::::::::::::::::::::::X**;;X::::::::::::::",
":::::::::::X;*;**;X::::::::::::::::::::::::X;*;**;X::::::::::::::::::::::::X;*;**;X::::::::::::::::::::::::X;*;**;X:::::::::::::",
"::::::::::X*;*;****X::::::::::::::::::::::X*;*;****X::::::::::::::::::::::X*;*;****X::::::::::::::::::::::X*;*;****X::::::::::::",
":::::::::X*;**;*$*$*X::::::::::::::::::::X*;**;*$*$*X::::::::::::::::::::X*;**;*$*$*X::::::::::::::::::::X*;**;*$*$*X:::::::::::",
"::::::::X*;$**;;***$*X::::::::::::::::::X*;$**;;***$*X::::::::::::::::::X*;$**;;***$*X::::::::::::::::::X*;$**;;***$*X::::::::::",
"::::::::X$$**;;;*$*$*X::::::::::::::::::X$$**;;;*$*$*X::::::::::::::::::X$$**;;;*$*$*X::::::::::::::::::X$$**;;;*$*$*X::::::::::",
"::::::::X*$**;;;*$**XX::::::::::::::::::X*$**;;;*$**XX::::::::::::::::::X*$**;;;*$**XX::::::::::::::::::X*$**;;;*$**XX::::::::::",
"::::::::XXXX$;;;**$X+X::::::::::::::::::XXXX$;;;**$X+X::::::::::::::::::XXXX$;;;**$XXX::::::::::::::::::XXXX$;;;**$XXX::::::::::",
"::::::::XX+XXX$XXXXX+X::::::::::::::::::XX+XXX$XXXXX+X::::::::::::::::::XX+XXX$XXXXXXX::::::::::::::::::XX+XXX$XXXXXXX::::::::::",
"::::::::XX++X+$$XX$$XXXXXXXXXXXXXXXXXXXXXX++X+$$XX$$XXXXXXXXXXXXXXXXXXXXXX++X+$$XX$$XX::::::::::::::::::XX++X+$$XX$$XX::::::::::",
"::::::::XX$$X$$$XX$$X**;;**;;;****;;**;*;X$$X$$$XX$$X**;;**;;;****;;**;*;X$$X$$$XX$$XX::::::::::::::::::XX$$X$$$XX$$XX::::::::::",
"::::::::XX$$+*++$X$$X++++$$$+++++++++++++X$$+*++$X$$X++++$$$+++++++++++++X$$+*++$X$$XX::::::::::::::::::XX$$+*++$X$$XX::::::::::",
"::::::::XX+*+*X+$X$$X$$$$+++$$++$$++$$$$$X+*+*X+$X$$X$$$$+++$$++$$++$$$$$X+*+*X+$X$$$X::::::::::::::::::XX+*+*X+$X$$$X::::::::::",
"::::::::X$X*+*++$$$+XXXXX+++++++++$$++XXXXX*+*++$$$+$XXXX+++++++++$$++XXXXX*+*++$$$+$X::::::::::::::::::X$X*+*++$$$+$X::::::::::",
"::::::::X$X*+*X+$*$+$XXXXXXXXXXXXXXXXXXXX$X*+*X+$*$+$XXXXXXXXXXXXXXXXXXXX$X*+*X+$*$+$X::::::::::::::::::X$X*+*X+$*$+$X::::::::::",
"::::::::X$+***X+$*$+$X::::::::::::::::::X$+***X+$*$+$X::::::::::::::::::X$+***X+$*$+$X::::::::::::::::::X$+***X+$*$+$X::::::::::",
"::::::::X$XX$$XX$$*++X::::::::::::::::::X$XX$$XX$$*++X::::::::::::::::::X$XX$$XX$$*++X::::::::::::::::::X$XX$$XX$$*++X::::::::::",
"::::::::X$X+$*+X+$*++X::::::::::::::::::X$X+$*+X+$*++X::::::::::::::::::X$X+$*+X+$*++X::::::::::::::::::X$X+$*+X+$*++X::::::::::",
"::::::::X+X+$*$X+$*++X::::::::::::::::::X+X+$*$X+$*++X::::::::::::::::::X+X+$*$X+$*++X::::::::::::::::::X+X+$*$X+$*++X::::::::::",
"::::::::X+X++**X+$*XXXXXXXXXXXXXXXXXXXXXX+X++**X+$*X+XXXXXXXXXXXXXXXXXXXXXX++**X+$*X+X::::::::::::::::::.+X++**X+$*X+X::::::::::",
"::::::::X+X++$*X+$*XX**;;;*********;**;**XX++$*X+$*XX**;;;*********;**;**XX++$*X+$*X+X::::::::::::::::::.+X++$*X+$*X+X::::::::::",
"::::::::X++X+$*XX$+X++++++++$$++++++$$$$$X+X+$*XX$+X++++++++$$++++++$$$$$X+X+$*XX$+X+X::::::::::::::::::.++X+$*XX$+X+X::::::::::",
"::::::::XX+X+$+XX++X$$$$$$$$++++$$$$$++++X+X+$+XX++X$$$$$$$$++++$$$$$++++X+X+$$XX++X+X::::::::::::::::::XX+X+$+XX++X+X::::::::::",
"::::::::XXXX+++XX+XXXXXX++++++++++++++XXXXXX++++X+XXXXXX++++++++++++++XXXXXX+$$+X+XXXX::::::::::::::::::.XXX+++XX+XXXX::::::::::",
"::::::::XXXX+++XX+X+XXXXXXXXXXXXXXXXXXXXXXXX++++X+X+XXXXXXXXXXXXXXXXXXXXXXXX+$++X+XXXX::::::::::::::::::X.XX+++XX+XXXX::::::::::",
":::::::::XXX+++XX+X+X::::::::::::::::::::XXX+++XX+X+X::::::::::::::::::::XXX+++XX+X+X::::::::::::::::::::X.X+++XX+X+X:::::::::::",
":::::::::XXXX+XXXXXXX::::::::::::::::::::XXXX+XXXXXXX::::::::::::::::::::XXXX+XXXXXXX::::::::::::::::::::  ..+XXXXXXX:::::::::::",
"::::::::::XXXXXXXXXX::::::::::::::::::::::XXXXXXXXXX::::::::::::::::::::::XXXXXXXXXX::::::::::::::::::::::.XXXXXXXXX::::::::::::",
"::::::::::::::::::::::::::::::::::::::::::::::::::::::::::::::::::::::::::::::::::::::::::::::::::::::::::::::::::::::::::::::::",
"::::::::::::::::::::::::::::::::::::::::::::::::::::::::::::::::::::::::::::::::::::::::::::::::::::::::::::::::::::::::::::::::",
"::::::::::::::XX::::::::::::::::::::::::::::::XX::::::::::::::::::::::::::::::XX::::::::::::::::::::::::::::::XX::::::::::::::::",
":::::::::::::X;;X::::::::::::::::::::::::::::X;;X::::::::::::::::::::::::::::X;;X::::::::::::::::::::::::::::X;;X:::::::::::::::",
"::::::::::::X**;;X::::::::::::::::::::::::::X**;;X::::::::::::::::::::::::::X**;;X::::::::::::::::::::::::::.%*;;X::::::::::::::",
":::::::::::X;*;**;X::::::::::::::::::::::::X;*;**;X::::::::::::::::::::::::X;*;**;X::::::::::::::::::::::::X=%=**;X:::::::::::::",
"::::::::::X*;*;****X::::::::::::::::::::::X*;*;****X::::::::::::::::::::::X*;*;****.::::::::::::::::::::::X%=%=%***X::::::::::::",
":::::::::X*;**;*$*$*X::::::::::::::::::::X*;**;*$*$*X::::::::::::::::::::X*;**;*$*@% :::::::::::::::::::: &;%%=%@*$*X:::::::::::",
"::::::::X*;$**;;***$*X::::::::::::::::::X*;$**;;***$*X::::::::::::::::::X*;$**;;*%%$*X::::::::::::::::::X&-#**=;***$*X::::::::::",
"::::::::X$$**;;;*$*$*X::::::::::::::::::X$$**;;;*$*$*X::::::::::::::::::X$$**;;;*@%@%X:::::::::::::::::: ##&&-;=*$*$*X::::::::::",
"::::::::X*$**;;;*$**XX::::::::::::::::::X*$**;;;*$**XX::::::::::::::::::X*$**;;;*$%*XX::::::::::::::::::X*#%&---%@**XX::::::::::",
"::::::::XXXX$;;;**$X+X::::::::::::::::::XXXX$;;;**$X+X::::::::::::::::::XXXX$;;;*%#XX ::::::::::::::::::XX .@===%%@.XX::::::::::",
"::::::::X++XXX$XXXXX+X::::::::::::::::::XX+XXX$XXXXX+X::::::::::::::::::XX+XXX$..     ::::::::::::::::::X++...$..XXXXX::::::::::",
"::::::::X+++X+$$XX$$XXXXXXXXXXXXXXXXXXXXXX++X+$$XX$$XXXXXXXXXXXXXXXXXXXXXX++XO@$..@@..::::::::::::::::::X++o O@$XX$$XX::::::::::",
"::::::::X+$$X$$$XX$$X**;;**;;;****;;**;*;X$$X$$$XX$$X**;;**;;;****;;**;*;X$$X$@@..@@..::::::::::::::::::X+$$X$@@XX$$XX::::::::::",
"::::::::XX$$+*++$X$$X++++$$$+++++++++++++X$$+*++$X$$X++++$$$+++++++++++++X$$+*++$.@@. ::::::::::::::::::XX$$+*OO@X$$XX::::::::::",
"::::::::XX+*+*X+$X$$X$$$$+++$$++$$++$$$$$X+*+*X+$X$$X$$$$+++$$++$$++$$$$$X+*+*X+$X@@# ::::::::::::::::::XX+*+*.O@.$$$X::::::::::",
"::::::::X$X*+*++$$$+XXXXX+++++++++$$++XXXXX*+*++$$$+$XXXX+++++++++$$++XXXXX*+*++$@@+#X:::::::::::::::::: $X*+*+O@$$+$X::::::::::",
"::::::::X$X*+*X+$*$+$XXXXXXXXXXXXXXXXXXXX$X*+*X+$*$+$XXXXXXXXXXXXXXXXXXXX$X*+*X+$%#o$X::::::::::::::::::X$X*+*X+$%$+$X::::::::::",
"::::::::X$+***X+$*$+$X::::::::::::::::::X$+***X+$*$+$X::::::::::::::::::X$+***XO@*#+$X::::::::::::::::::X$o***X+$*@+$X::::::::::",
"::::::::X$XX$$XX$$*++X::::::::::::::::::X$XX$$XX$$*++X::::::::::::::::::X$XX$$..$@*++X::::::::::::::::::X$  $# X$$*O+X::::::::::",
"::::::::X$X+$*+X+$*++X::::::::::::::::::X$X+$*+X+$*++X::::::::::::::::::X$X+$%O.O$*++X::::::::::::::::::X$Xo#*o +$*OOX::::::::::",
"::::::::X+X+$*$X+$*++X::::::::::::::::::X+X+$*$X+$*++X::::::::::::::::::X+X+$*$.+$*++ ::::::::::::::::::X+X+#&#.O#*+O.::::::::::",
"::::::::X+X++**X+$*XXXXXXXXXXXXXXXXXXXXXX+X++**X+$*X+XXXXXXXXXXXXXXXXXXXXXX++*%X+$*Xo ::::::::::::::::::X+X++&&.O@%.O.::::::::::",
"::::::::X+X++$*X+$*XX**;;;*********;**;**XX++$*X+$*XX**;;;*********;**;**XX++@*X+#&.O ::::::::::::::::::X+X++#& O@*X+X::::::::::",
"::::::::X++X+$*XX$+X++++++++$$++++++$$$$$X+X+$*XX$+X++++++++$$++++++$$$$$X+XO$*  #O.o :::::::::::::::::: +oX+$&  @OX+X::::::::::",
"::::::::X++X+$$XX++X$$$$$$$$++++$$$$$++++X+X+$+XX++X$$$$$$$$++++$$$$$++++X+.+##  OO.o ::::::::::::::::::Xoo +$$  oO.+X::::::::::",
"::::::::X++X+$$+X+XXXXXX++++++++++++++XXXXXX++++X+XXXXXX++++++++++++++XXXX..O@@O.O. XX::::::::::::::::::Xoo +$$+ +...X::::::::::",
"::::::::XX+X+$++X+X+XXXXXXXXXXXXXXXXXXXXXXXX++++X+X+XXXXXXXXXXXXXXXXXXXXXXX +@+O.O.oXX::::::::::::::::::XXo o$++X+.+XX::::::::::",
":::::::::XXX+++XX+X+X::::::::::::::::::::XXX+++XX+X+X::::::::::::::::::::XXX+++..O +X::::::::::::::::::::XXXoooXX+XO.:::::::::::",
":::::::::XXXX+XXXXXXX::::::::::::::::::::XXXX+XXXXXXX::::::::::::::::::::XXXX+..   XX::::::::::::::::::::XXXX+   XXX.:::::::::::",
"::::::::::XXXXXXXXXX::::::::::::::::::::::XXXXXXXXXX::::::::::::::::::::::XXX..  XX ::::::::::::::::::::::XXXX    XX::::::::::::",
"::::::::::::::::::::::::::::::::::::::::::::::::::::::::::::::::::::::::::::::::::::::::::::::::::::::::::::::::::::::::::::::::"
};
