/* XPM */
static char *Peacock_walk[] = {
/* columns rows colors chars-per-pixel */
"128 96 16 1 ",
"  c #0B0B0B",
". c #155F31",
"X c #227D20",
"o c #272F6B",
"O c #B57332",
"+ c #39AC37",
"@ c #BE8232",
"# c #FAAF4B",
"$ c #354C82",
"% c #444D96",
"& c #4B6EBD",
"* c #5B6EE1",
"= c #639BFF",
"- c #B9C7C6",
"; c #FBF7EE",
": c None",
/* pixels */
"::::::::::::::::::::::::::::::::::::::::::::::::X:::::::::::::::::::::::::::::::::::::::::::::::::::::::::::::::::::::::::::::::",
":::::::::::::::::::::::::::::::::::::::::::::::X+X::::::::::::::::::::::::::::::::::::::::::::::::::::::::::::::::::::::::::::::",
"::::::::::::::::::::::::::::::::::::::::::::::X+;+X:::::::::::::::::::::::::::::::::::::::::::::::::::::::::::::::::::::::::::::",
"::::::::::::::::::::::::::%%::::::::::::::::::X+%%X:::::::::::::::::::::::::::::::::::::::::::::::::%%::::::::::::::::::::::::::",
"::::::::::::::::::::::%%:%&%::%%::::::::::XXXXX%&%XXXXX::::::::::::::::::::::::%%:::::::::::::::%%::%&%:%%::::::::::::::::::::::",
"::::::::::::::::::::::%&%%;%:%&%::::::::::X%%+X%;%X+%%X::::::::::::::::::::::::%&%::::::::::::::%&%:%;%%&%::::::::::::::::::::::",
":::::::::::::::::::::::%;%;%%;%:::::::::::X%&%X%;%X%&%X::::::::::::::::::::%%::%X%::%%:::::::::::%;%%;%;%:::::::::::::::::::::::",
"::::::::::::::::::::::::%****%::::::::XXXX.+%;%%%%%;%+.XXXX::::::::::::::::%&%:X+X:%&%::::::::::::%****%::::::::::::::::::::::::",
":::XXXXX:XXXXX::::::::::*=;==%::::::::X+++.X+%%===%%+XX+++X:::::::::::::::::%;X+;+X;%:::::::::::::%==;=*::::::::::XXXXX:XXXXX:::",
":::X+++X:X+++.XX..:::::*=; ;=#@:::::::X+;;...%;===;%X..;;+X:::::::::::::::XXXXX;&;XXXXX::::::::::@#=; ;=*:::::..XX.+++X:X+++X:::",
":XXX+;;X.X;;+.+++.:::::*==;=*@##::::::X+;&.++* === *++.&;+X:::::::::::::::X+++X+++X+++X:::::::::##@*=;==*:::::.+++.+;;X.X;;+XXX:",
":X+X+;&+.+&;+--;+.::::::*==%::::::::::.X++.+;%;@#@;%;+.++XX:::::::::::::::X+;;XXXXX;;+X:::::::::::::%==*::::::.+;--+;&+.+&;+X+X:",
":X+;X+++X....$-;+.::::::*=%:::::::::XX...X.+;&%###%&;+.X...XX:::::::::XXXXX+;&X+++X&;+XXXXX::::::::::%=*::::::.+;-$....X+++X;+X:",
":X+;&XX...+++.X+X....X::*=%:::::::::X+++......%@#@%.....X+++X:::::::::X+++.X++X+;+X++X.+++X::::::::::%=*::X....X+X.+++...XX&;+X:",
":XXXX..++.+;;+XXX.+++.::%=*%::::::::X+;;X+++.++%#%++.+++X;;+X:::::::XXX+;;...X.;&;X....;;+XXX:::::::%*=%::.+++.XXX+;;+.++..XXXX:",
"::X+++.+;X+;&+.+.--;+.::%==%::::::::X+;&X+;;.+;%*%;+.;;+.&;+X:::::::X+X+;&X+++..X..+++X&;+X+X:::::::%==%::.+;--.+.+&;+X;+.+++X::",
"::.+;;XX...X++.+.$-;+.:%*==*%:::::::XX++X+;&.%%%=%%%.&;+.++XX:::::::X+XX++X+;;.+++.;;+.++XX+.::::::%*==*%:.+;-$.+.++X...XX;;+.::",
"::.+;&+.+++..XX+.++%%%%*====%::::::::X....++%**%=%**%++..XXX::::::::.X;&...X;&.+;+.&;X.XX&;X.::::::%====*%%%%++.+XX..+++.+&;+.::",
":...+++.+;;+X.XX%%%*%**%*===%::::::::X+++..%*=*****=*%..+++X::::::::..XXXX..XX.;&;.XXX.X.XX..::::::%===*%**%*%%%XX.X+;;+.+++...:",
":.-;X...+;&+.+%%*===*==*%===%::::::::X+-;.+%==*===*==%+.;-+X:::::::::.......................:::::::%===%*==*===*%%+.+&;+...X;-.:",
":.-$&X+.XX++.%%*===*===*%==*%::::::::X+-$.%*=*=====*=*%.$-+X:::::::::.+;;X+++X.+++.X+++X;;+X:::::::%*==%*===*===*%%.++XX.+X&$-.:",
":.++X;&&....%%*==**===*%*==%::::::::::X++.%==%=====%==%.++X::::::::::.X-$.+;;+.+;+.+;;+X$-X.::::::::%==*%*===**==*%%....&&;X++.:",
":....;;;.--;%***%==**%%*==*%::::::::::XXXX%*=%*===*%=*%...X:::::::::::.X+.X-$+.-$-.+$-X.+X.:::::::::%*==*%%**==%***%;--.;;;....:",
"::::.+++.++%*%%%***%%%****%%::::::::::::X+%**%*===*%**%+X:::::::::::::......XX.X+X.XX...X..:::::::::%%****%%%***%%%*%++.+++.::::",
"::::...XXX.o***%%%%******%::::::::::::::::X%*%*****%*%X:::::::::::::::::.X+-.........-+..:::::::::::::%******%%%%***o.XXX...::::",
":::::.+++-$oo%%o%*====*%%::::::::::::::::::%%o%***%o%%:::::::::::::::::::.X++.X+-+X.++X.:::::::::::::::%%*====*%o%%oo$-+++.:::::",
":::::....--;.+oo*==%o*o:::::::::::::::::::::oo%%%%*o%:::::::::::::::::::::.....-$-.....::::::::::::::::::o*o%==*oo+.;--....:::::",
"::::::::.+++....%*%:oO%::::::::::::::::::::::oo**%oo::::::::::::::::::::::::o%*...*%o::::::::::::::::::::%Oo:%*%....+++.::::::::",
"::::::::.....:::%@%:%O%::::::::::::::::::::::%@ooo@%:::::::::::::::::::::::::o%%%%%o:::::::::::::::::::::%O%:%@%:::.....::::::::",
"::::::::::::::::%@%:%O%::::::::::::::::::::::%@%:%@%:::::::::::::::::::::::::%@ooo@%:::::::::::::::::::::%O%:%@%::::::::::::::::",
"::::::::::::::::%#%oO%@%:::::::::::::::::::::%#%:%#%:::::::::::::::::::::::::%@%:%@%::::::::::::::::::::%@%Oo%#%::::::::::::::::",
":::::::::::::::%@%#%::::::::::::::::::::::::%@%#%@%#%:::::::::::::::::::::::%@%@%@%@%:::::::::::::::::::::::%#%@%:::::::::::::::",
"::::::::::::::::::::::::::::::::::::::::::::::::::::::::::::::::::::::::::::::::::::::::::::::::::::::::::::::::::::::::::::::::",
"::::::::::::::::::::::::::::::::::::::::::::::::X:::::::::::::::::::::::::::::::::::::::::::::::::::::::::::::::::::::::::::::::",
":::::::::::::::::::::::::%%::::::::::::::::::::X+X:::::::::::::::::::::::::::::::::::::::::::::::::::%%:::::::::::::::::::::::::",
":::::::::::::::::::::%%:%&%::%%:::::::::::::::X+;+X::::::::::::::::::::::::::::%%::::::::::::::::%%::%&%:%%:::::::::::::::::::::",
":::::::::::::::::::::%&%%;%:%&%:::::::::::::::X+&+X::::::::::::::::::::::::::::%&%:::::::::::::::%&%:%;%%&%:::::::::::::::::::::",
"::::::::::::::::::::::%;%;%%;%::::::::::::XXXXX+%%XXXXX::::::::::::::::::::%%::%X%::%%::::::::::::%;%%;%;%::::::::::::::::::::::",
":::::::::::::::::::::::%****%:::::::::::::X+++X%&%X+++X::::::::::::::::::::%&%:X+X:%&%:::::::::::::%****%:::::::::::::::::::::::",
":::XXXXX:XXXXX:::::::::*=;==%:::::::::::::X%%;X%;%X;%%X:::::::::::::::::::::%;X+;+X;%::::::::::::::%==;=*:::::::::XXXXX:XXXXX:::",
":::X+++X:X+++.XX..::::*=; ;=#@::::::::XXXX.%&%+%;%+%&%.XXXX:::::::::::::::XXXXX;&;XXXXX:::::::::::@#=; ;=*::::..XX.+++X:X+++X:::",
":XXX+;;X.X;;+.+++.::::*==;=*@##:::::::X+++.X%;%%%%%;%XX+++X:::::::::::::::X+++X+++X+++X::::::::::##@*=;==*::::.+++.+;;X.X;;+XXX:",
":X+X+;&+.+&;+--;+.:::::*==%:::::::::::X+;;...%%===%%X..;;+X:::::::::::::::X+;;XXXXX;;+X::::::::::::::%==*:::::.+;--+;&+.+&;+X+X:",
":X+;X+++X....$-;+.::::::*=%:::::::::::X+;&.++%;===;%++.&;+X:::::::::::XXXXX+;&X+++X&;+XXXXX::::::::::%=*::::::.+;-$....X+++X;+X:",
":X+;&XX...+++.X+X....X::*=%:::::::::::.X++.+;* === *;+.++XX:::::::::::X+++.X++X+;+X++X.+++X::::::::::%=*::X....X+X.+++...XX&;+X:",
":XXXX..++.+;;+XXX.+++.::%=*%::::::::XX...X.+;%;@#@;%;+.X...XX:::::::XXX+;;...X.;&;X....;;+XXX:::::::%*=%::.+++.XXX+;;+.++..XXXX:",
"::X+++.+;X+;&+.+.--;+.::%==%::::::::X+++......%###%.....X+++X:::::::X+X+;&X+++..X..+++X&;+X+X:::::::%==%::.+;--.+.+&;+X;+.+++X::",
"::.+;;XX...X++.+.$-;+.:%*==*%:::::::X+;;X+++.+%@#@%+.+++X;;+X:::::::X+XX++X+;;.+++.;;+.++XX+.::::::%*==*%:.+;-$.+.++X...XX;;+.::",
"::.+;&+.+++..XX+.++%%%%*====%:::::::X+;&X+;;.+;%#%;+.;;+.&;+X:::::::.X;&...X;&.+;+.&;X.XX&;X.::::::%====*%%%%++.+XX..+++.+&;+.::",
":...+++.+;;+X.XX%%%*%**%*===%:::::::XX++X+;&.%%%*%%%.&;+.++XX:::::::..XXXX..XX.;&;.XXX.X.XX..::::::%===*%**%*%%%XX.X+;;+.+++...:",
":.-;X...+;&+.+%%*===*==*%===%::::::::X....++%**%=%**%++..XXX:::::::::.......................:::::::%===%*==*===*%%+.+&;+...X;-.:",
":.-$&X+.XX++.%%*===*===*%==*%::::::::X+++..%*=**=**=*%..+++X:::::::::.+;;X+++X.+++.X+++X;;+X:::::::%*==%*===*===*%%.++XX.+X&$-.:",
":.++X;&&....%%*==**===*%*==%:::::::::X+-;.+%==*=*=*==%+.;-+X:::::::::.X-$.+;;+.+;+.+;;+X$-X.::::::::%==*%*===**==*%%....&&;X++.:",
":....;;;.--;%***%==**%%*==*%:::::::::X+-$.%*=*=====*=*%.$-+X::::::::::.X+.X-$+.-$-.+$-X.+X.:::::::::%*==*%%**==%***%;--.;;;....:",
"::::.+++.++%*%%%***%%%****%%::::::::::X++.%==%=====%==%.++X:::::::::::......XX.X+X.XX...X..:::::::::%%****%%%***%%%*%++.+++.::::",
"::::...XXX.o***%%%%******%::::::::::::XXXX%*=%*===*%=*%...X:::::::::::::.X+-.........-+..:::::::::::::%******%%%%***o.XXX...::::",
":::::.+++-$oo%%o%*====*%%:::::::::::::::X+%**%*===*%**%+X::::::::::::::::.X++.X+-+X.++X.:::::::::::::::%%*====*%o%%oo$-+++.:::::",
":::::....--;.+oo*==%o*o:::::::::::::::::::X%*%*****%*%X:::::::::::::::::::.....-$-.....::::::::::::::::::o*o%==*oo+.;--....:::::",
"::::::::.+++....%*%:oOo::::::::::::::::::::%%o%***%o%%::::::::::::::::::::::o%*...*%o::::::::::::::::::::oOo:%*%....+++.::::::::",
"::::::::.....:::%@%::%O%::::::::::::::::::::oo%%%%*o%::::::::::::::::::::::::o%%%%%o::::::::::::::::::::%O%::%@%:::.....::::::::",
"::::::::::::::::%@%::O%@%::::::::::::::::::::%@ooooo:::::::::::::::::::::::::%@ooo@%:::::::::::::::::::%@%O::%@%::::::::::::::::",
"::::::::::::::::%@%::::::::::::::::::::::::::%@%:o@%:::::::::::::::::::::::::%@%::o@%::::::::::::::::::::::::%@%::::::::::::::::",
"::::::::::::::::%#%::::::::::::::::::::::::::%#%o@%#%::::::::::::::::::::::::%@%:o@%@%:::::::::::::::::::::::%#%::::::::::::::::",
":::::::::::::::%@%#%::::::::::::::::::::::::%@%#%:::::::::::::::::::::::::::%@%@%:::::::::::::::::::::::::::%#%@%:::::::::::::::",
"::::::::::::::::::::::::::::::::::::::::::::::::::::::::::::::::::::::::::::::::::::::::::::::::::::::::::::::::::::::::::::::::",
"::::::::::::::::::::::::::::::::::::::::::::::::X:::::::::::::::::::::::::::::::::::::::::::::::::::::::::::::::::::::::::::::::",
":::::::::::::::::::::::::%%::::::::::::::::::::X+X:::::::::::::::::::::::::::::::::::::::::::::::::::%%:::::::::::::::::::::::::",
":::::::::::::::::::::%%:%&%::%%:::::::::::::::X+;+X::::::::::::::::::::::::::::%%::::::::::::::::%%::%&%:%%:::::::::::::::::::::",
":::::::::::::::::::::%&%%;%:%&%:::::::::::::::X+&+X::::::::::::::::::::::::::::%&%:::::::::::::::%&%:%;%%&%:::::::::::::::::::::",
"::::::::::::::::::::::%;%;%%;%::::::::::::XXXXX%%+XXXXX::::::::::::::::::::%%::%X%::%%::::::::::::%;%%;%;%::::::::::::::::::::::",
":::::::::::::::::::::::%****%:::::::::::::X+++X%&%X+++X::::::::::::::::::::%&%:X+X:%&%:::::::::::::%****%:::::::::::::::::::::::",
":::XXXXX:XXXXX:::::::::*=;==%:::::::::::::X%%;X%;%X;%%X:::::::::::::::::::::%;X+;+X;%::::::::::::::%==;=*:::::::::XXXXX:XXXXX:::",
":::X+++X:X+++.XX..::::*=; ;=#@::::::::XXXX.%&%+%;%+%&%.XXXX:::::::::::::::XXXXX;&;XXXXX:::::::::::@#=; ;=*::::..XX.+++X:X+++X:::",
":XXX+;;X.X;;+.+++.::::*==;=*@##:::::::X+++.X%;%%%%%;%XX+++X:::::::::::::::X+++X+++X+++X::::::::::##@*=;==*::::.+++.+;;X.X;;+XXX:",
":X+X+;&+.+&;+--;+.:::::*==%:::::::::::X+;;..X%%===%%...;;+X:::::::::::::::X+;;XXXXX;;+X::::::::::::::%==*:::::.+;--+;&+.+&;+X+X:",
":X+;X+++X....$-;+.::::::*=%:::::::::::X+;&.++%;===;%++.&;+X:::::::::::XXXXX+;&X+++X&;+XXXXX::::::::::%=*::::::.+;-$....X+++X;+X:",
":X+;&XX...+++.X+X....X::*=%:::::::::::.X++.+;* === *;+.++XX:::::::::::X+++.X++X+;+X++X.+++X::::::::::%=*::X....X+X.+++...XX&;+X:",
":XXXX..++.+;;+XXX.+++.::%=*%::::::::XX...X.+;%;@#@;%;+.X...XX:::::::XXX+;;...X.;&;X....;;+XXX:::::::%*=%::.+++.XXX+;;+.++..XXXX:",
"::X+++.+;X+;&+.+.--;+.::%==%::::::::X+++......%###%.....X+++X:::::::X+X+;&X+++..X..+++X&;+X+X:::::::%==%::.+;--.+.+&;+X;+.+++X::",
"::.+;;XX...X++.+.$-;+.:%*==*%:::::::X+;;X+++.+%@#@%+.+++X;;+X:::::::X+XX++X+;;.+++.;;+.++XX+.::::::%*==*%:.+;-$.+.++X...XX;;+.::",
"::.+;&+.+++..XX+.++%%%%*====%:::::::X+;&X+;;.+;%#%;+.;;+.&;+X:::::::.X;&...X;&.+;+.&;X.XX&;X.::::::%====*%%%%++.+XX..+++.+&;+.::",
":...+++.+;;+X.XX%%%*%**%*===%:::::::XX++X+;&.%%%*%%%.&;+.++XX:::::::..XXXX..XX.;&;.XXX.X.XX..::::::%===*%**%*%%%XX.X+;;+.+++...:",
":.-;X...+;&+.+%%*===*==*%===%::::::::X....++%**%=%**%++..XXX:::::::::.......................:::::::%===%*==*===*%%+.+&;+...X;-.:",
":.-$&X+.XX++.%%*===*===*%==*%::::::::X+++..%*=**=**=*%..+++X:::::::::.+;;X+++X.+++.X+++X;;+X:::::::%*==%*===*===*%%.++XX.+X&$-.:",
":.++X;&&....%%*==**===*%*==%:::::::::X+-;.+%==*=*=*==%+.;-+X:::::::::.X-$.+;;+.+;+.+;;+X$-X.::::::::%==*%*===**==*%%....&&;X++.:",
":....;;;.--;%***%==**%%*==*%:::::::::X+-$.%*=*=====*=*%.$-+X::::::::::.X+.X-$+.-$-.+$-X.+X.:::::::::%*==*%%**==%***%;--.;;;....:",
"::::.+++.++%*%%%***%%%****%%::::::::::X++.%==%=====%==%.++X:::::::::::......XX.X+X.XX...X..:::::::::%%****%%%***%%%*%++.+++.::::",
"::::...XXX.o***%%%%******%::::::::::::XXXX%*=%*===*%=*%...X:::::::::::::.X+-.........-+..:::::::::::::%******%%%%***o.XXX...::::",
":::::.+++-$oo%%o%*====*%%:::::::::::::::X+%**%*===*%**%+X::::::::::::::::.X++.X+-+X.++X.:::::::::::::::%%*====*%o%%oo$-+++.:::::",
":::::....--;.+oo*==%o*o:::::::::::::::::::X%*%*****%*%X:::::::::::::::::::.....-$-.....::::::::::::::::::o*o%==*oo+.;--....:::::",
"::::::::.+++....%*%:oO%::::::::::::::::::::%%o%***%o%%::::::::::::::::::::::o%*...*%o::::::::::::::::::::%Oo:%*%....+++.::::::::",
"::::::::.....:::%@%:oO%:::::::::::::::::::::oo%%%%*o%::::::::::::::::::::::::o%%%%%o:::::::::::::::::::::%Oo:%@%:::.....::::::::",
":::::::::::::::::%#%oO%::::::::::::::::::::::ooooooo:::::::::::::::::::::::::%@ooo@%:::::::::::::::::::::%Oo%#%:::::::::::::::::",
"::::::::::::::::%@%#%O%::::::::::::::::::::::%@o:%@%::::::::::::::::::::::::%@o::%@%:::::::::::::::::::::%O%#%@%::::::::::::::::",
":::::::::::::::::::oO%@%::::::::::::::::::::%#%@o%#%:::::::::::::::::::::::%@%@o:%@%::::::::::::::::::::%@%Oo:::::::::::::::::::",
"::::::::::::::::::::::::::::::::::::::::::::::::%#%@%:::::::::::::::::::::::::::%@%@%:::::::::::::::::::::::::::::::::::::::::::"
};
