/* XPM */
static char *flowers[] = {
/* columns rows colors chars-per-pixel */
"36 96 25 1 ",
"  c #1A7A3E",
". c #105C68",
"X c #DF3E23",
"o c #FA6A0A",
"O c #DE7C70",
"+ c #E86A73",
"@ c #39973A",
"# c #14A02E",
"$ c #59C135",
"% c #F9A31B",
"& c #EE9F27",
"* c #FFD541",
"= c #FFFC40",
"- c #FBDD76",
"; c #C0F675",
": c #477D85",
"> c #588DBE",
", c #56B3C0",
"< c #F5A097",
"1 c #FAD6B8",
"2 c #849BE4",
"3 c #B9BFFB",
"4 c #F1C7C2",
"5 c #FEF3C0",
"6 c None",
/* pixels */
"666666666666666666666666666666666666",
"666666666666666666666666666666666666",
"666666666666666666666666666666666666",
"666666666666666666666666666666666666",
"666666666666666666666666666666666666",
"66666%*%6666666661516666666662326666",
"6666%%o%%666666611<11666666622>22666",
"6666*oXo*$#666665<+<5$#666663>:>3$#6",
"666#%%o%% 66666#11<11 66666#22>22 66",
"6666 %6% 6666666 161 6666666 262 666",
"6666 #6# 6666666 #6# 6666666 #6# 666",
"66666 # 666666666 # 666666666 # 6666",
"666666666666666666666666666666666666",
"666666666666666666666666666666666666",
"666666666666666666666666666666666666",
"666666666666666666666666666666666666",
"66666%6%666666666<6<6666666662626666",
"6666%o%o%6666666<+<+<66666662:2:2666",
"6666%o*o%6666666<+1+<66666662:3:2666",
"6666%*o*%$#66666<1+1<$#6666623:32$#6",
"666#$o*o# 66666#$+1+# 66666#$:3:# 66",
"6666 #6# 6666666 #6# 6666666 #6# 666",
"6666 #6# 6666666 #6# 6666666 #6# 666",
"66666 # 666666666 # 666666666 # 6666",
"666666666666666666666666666666666666",
"666666666666666666666666666666666666",
"666666666666666666666666666666666666",
"666666666666666666666666666666666666",
"666666===666666666111666666666333666",
"66666===*666666661111666666663333666",
"66666=%%*666666661<<1666666663223666",
"66666=o%*$#6666661+<1$#6666663:23$#6",
"666#$6o%# 66666#$6+<# 66666#$6:2# 66",
"6666 #%# 6666666 #<# 6666666 #2# 666",
"6666 #6# 6666666 #6# 6666666 #6# 666",
"66666 # 666666666 # 666666666 # 6666",
"666666666666666666666666666666666666",
"666666666666666666666666666666666666",
"666666666666666666666666666666666666",
"666666666666666666666666666666666666",
"666666666666666666666666666666666666",
"666666=66666666666566666666666266666",
"66666%*%666666666<1<6666666662326666",
"6666=*o*=666666651+15666666623:32666",
"66666%*%6$$$66666<1<6$$$666662326$$$",
"66$$$6=6#  666$$$656#  666$$$666#  6",
"666  #6# 666666  #6# 666666  #6# 666",
"66666 # 666666666 # 666666666 # 6666",
"666666666666666666666666666666666666",
"666666666666666666666666666666666666",
"666666666666666666666666666666666666",
"666666666666666666666666666666666666",
"666666666666666666666666666666666666",
"666666666666666666666666666666666666",
"666666666666666666666666666666666666",
"666666%66666666666<66666666666266666",
"66666%*%6$$666666<1<6$$6666662326$$6",
"666$$6%6## 6666$$6<6## 6666$$626## 6",
"666 ##6#  66666 ##6#  66666 ##6#  66",
"6666  # 66666666  # 66666666  # 6666",
"666666666666666666666666666666666666",
"666666666666666666666666666666666666",
"666666666666666666666666666666666666",
"666666666666666666666666666666666666",
"666666666666666666666666666666666666",
"666666666666666666666666666666666666",
"666666666666666666666666666666666666",
"666666666666666666666666666666666666",
"666;;6--6666666;;6446666666;;6,,6666",
"6666;;-&;;666666;;4O;;666666;;,.;;66",
"666@@;&;;@@6666@@;O;;@@6666@@;.;;@@6",
"6666@@6;@@666666@@6;@@666666@@6;@@66",
"666666666666666666666666666666666666",
"666666666666666666666666666666666666",
"666666666666666666666666666666666666",
"666666666666666666666666666666666666",
"6666666;;;66666666666666666666666666",
"666666;;;666666666666666666666666666",
"6;;;66;;@@6666;;66666666666;6666;666",
"66;;;6;@@66666;;;66;;;66666;;666;666",
"6@@;;666;;666@@;;6;;;666666@@;6;@666",
"66@@;66;;;6666@@;6;;@@666666@@;@6666",
"6666666;;@@6666666;@@66666666@6@6666",
"6666666;@@66666666666666666666666666",
"666666666666666666666666666666666666",
"666666666666666666666666666666666666",
"666666666666666666666666666666666666",
"666666666666666666666666666666666666",
"666666666666666666666666666666666666",
"666666666666666666666666666666666666",
"66666%66666666666<666666666662666666",
"6666%*%666666666<1<66666666623266666",
"6666@%@666666666@<@666666666@2@66666",
"66666@66666666666@66666666666@666666",
"666666666666666666666666666666666666",
"666666666666666666666666666666666666"
};
