/* XPM */
static char *pathtiles[] = {
/* columns rows colors chars-per-pixel */
"128 128 3 1 ",
"  c #322B28",
". c #71413B",
"X c None",
/* pixels */
"XXXXXXXXXXXXXXXXXXXXXXXXXXXXXXXXXXXXXXXXXXXXXXXXXXXXXXXXXXXXXXXXXXXXXXXXXXXXXXXXXXXXXXXXXXXXXXXXXXXXXXXXXXXXXXXXXXXXXXXXXXXXXXXX",
"XXXXXXXXXXXXXXXXXXXXXXXXXXXXXXXXXXXXXXXXXXXXXXXXXXXXXXXXXXXXXXXXXXXXXXXXXXXXXXXXXXXXXXXXXXXXXXXXXXXXXXXXXXXXXXXXXXXXXXXXXXXXXXXX",
"XXXXXXXXXXXXXXXXXXXXXXXXXXXXXXXXXXXXXXXXXXXXXXXXXXXXXXXXXXXXXXXXXXXXXXXXXXXXXXXXXXXXXXXXXXXXXXXXXXXXXXXXXXXXX        XXXXXXXXXXX",
"XXXXXXXXXXXXXXXXXXXXXXXXXXXXXXXXXXXXXXXXXXXXXXXXXXXXXXXXXXXXXXXXXXXXXXXXXXXXXXXXXXXXXXXXXXXXXXXXXXXXXXXXXXX            XXXXXXXXX",
"XXXXXXXXXXXXXXXXXXXXXXXXXXXXXXXXXXXXXXXXXXXXXXXXXXXXXXXXXXXXXXXXXXXXXXXXXXXXXXXXXXXXXXXXXXXXXXXXXXXXXXXXX                XXXXXXX",
"XXXXXXXXXXXXXXXXXXXXXXXXXXXXXXXXXXXXXXXXXXXXXXXXXXXXXXXXXXXXXXXXXXXXXXXXXXXXXXXXXXXXXXXXXXXXXXXXXXXXXXXXX    ......       XXXXXX",
"XXXXXXXXXXXXXXXXXXXXXXXXXXXXXXXXXXXXXXXXXXXXXXXXXXXXXXXXXXXXXXXXXXXXXXXXXXXXXXXXXXXXXXXXXXXXXXXXXXXXXXXX    ..........    XXXXXX",
"XXXXXXXXXXXXXXXXXXXXXXXXXXXXXXXXX     XXXXXXXXXXXXX   XXXXXXXXXXXXXXXXXXXXXXXXXXXXXXXXXXXXXXXXXXXXXXXXXX   .........  .   XXXXXX",
"XXXXXXXXXXXXXXXXXXX          XXX       XX      XXX     XX    XXXXXX          XXXXXXXXXXXXXXXXXXXXXXXXXX    ....... .  .   XXXXXX",
"XXXXXXXXXXXXXXXXX                                                              XXXXXXXXXXXXXXXXXXXXXXXX   ..  .........   XXXXXX",
"XXXXXXXXXXXXXXXXX                 ....    ...       ..                         XXXXXXXXXXXXXXXXXXXXXXXX   ..  ........   XXXXXXX",
"XXXXXXXXXXXXXXXX       ..       ..............    ......   .....       ..       XXXXXXXXXXXXXXXXXXXXXXXX   ...........  XXXXXXXX",
"XXXXXXXXXXXX       .......  .....  ................  ...............  .......       XXXXXXXXXXXXXXXXXXXX    . ........  XXXXXXXX",
"XXXXXXXXXXX       .. ............  . ..............  . .................... ..       XXXXXXXXXXXXXXXXXXXX   ..........  XXXXXXXX",
"XXXXXXXXXX      ........... ........................................ ...........      XXXXXXXXXXXXXXXXXXX   ...........  XXXXXXX",
"XXXXXXXXXX    .  . ........................... .............................. .  .    XXXXXXXXXXXXXXXXXXX   ...........  XXXXXXX",
"XXXXXXXXXX   ..  ..............................................................  ..   XXXXXXXXXXXXXXXXXX    ..........    XXXXXX",
"XXXXXXXXX   ........................................................................   XXXXXXXXXXXXXXXXX   ............   XXXXXX",
"XXXXXXXXX   ........................................................................   XXXXXXXXXXXXXXXX   ..........  ..  XXXXXX",
"XXXXXXXXX   ........................................................................   XXXXXXXXXXXXXXXX   ........ .  ..  XXXXXX",
"XXXXXXXXX   ..........................  . ..........................................   XXXXXXXXXXXXXXXX   .............   XXXXXX",
"XXXXXXXXX   .......  ...  . .... . ...  ............................ .  ...  .......   XXXXXXXXXXXXXXXX   .............   XXXXXX",
"XXXXXXXXX  ........  ...  ......     ....................       ......  ...  ........  XXXXXXXXXXXXXXXXX   ...........   XXXXXXX",
"XXXXXXXX  ................            .................   ..          ................  XXXXXXXXXXXXXXXXX  ............  XXXXXXX",
"XXXXXXXX  ......... ......      XX    .  ...............              ...... .........  XXXXXXXXXXXXXXXXX  .. ........   XXXXXXX",
"XXXXXXX   .............  .  XXXXXXXX   . ............  .    X  XXXXX  .  ...........     XXXXXXXXXXXXXXXX  ...........    XXXXXX",
"XXXXXXX     ..........     XX  XXX  X   ............. .   XXXXXXX  XX     ..........     XXXXXXXXXXXXXXX   .  . ......    XXXXXX",
"XXXXXXX     ..........    XXX  XXX  XX  ..............   X  X XXX  XXX    ...........    XXXXXXXXXXXXXXX  ..  .........   XXXXXX",
"XXXXXXX    . .........   XXXXXXXXXXXXX    ............  XX  XXXXXXXXXXX   ......... .    XXXXXXXXXXXXXXX   ............   XXXXXX",
"XXXXXXX    ...........   XXXXX XX X XXX   ............  XXXXXXXXX XXXX    ...........    XXXXXXXXXXXXXXX   ............  XXXXXXX",
"XXXXXXXX   ..........   XXXXXXXXXXXXXXXX  ...........   XX X XXXXXXXXXXX   ..........   XXXXXXXXXXXXXXXXX   ..........   XXXXXXX",
"XXXXXXXX   ..........   XXXXXXXXXXXXXXXX   ..........   XXXXXXXXXXXXXXXX   ..........   XXXXXXXXXXXXXXXXX   ..........   XXXXXXX",
"XXXXXXXXX   .........   XXXXXXXXXXXXXXXX   ..........   XXXXXXXXXXXXXXXX   ...........  XXXXXXXXXXXXXXXXX   ..........  XXXXXXXX",
"XXXXXXXXX  ..........   X XXXXXXXX X  X    ..........   X XXXXXXXX X  X    ...........  XXXXXXXXXXXXXXXXX  ...........  XXXXXXXX",
"XXXXXXXX  ...  ......   X  XXXXXXXXX  X   ..  .......   X  XXXXXXXXX  X   ..  ........  XXXXXXXXXXXXXXXX  ...  .......  XXXXXXXX",
"XXXXXXXX  ...  . .....  XXXXXXXXXXXXXXXX  .. .........  XXXXXXXXXXXXXXXX  .. ... .....  XXXXXXXXXXXXXXXX  ...  . .....  XXXXXXXX",
"XXXXXXXX  ............   XXXXX XXXXX XX    ...........   XXXXX XXXXX XX    ............  XXXXXXXXXXXXXXX  .............  XXXXXXX",
"XXXXXXXXX ............   XXXXXXXXXXXXXX . ............   XXXXXXXXXXXXXX . .............   XXXXXXXXXXXXXXX .............   XXXXXX",
"XXXXXXXXX  ...........    XXX  XX XXX     ............    XXX  XX XXX     .............   XXXXXXXXXXXXXXX  ............   XXXXXX",
"XXXXXXXX   ........... .   XX  XXXX      ............. .   XX  XXXX      ...........  ..  XXXXXXXXXXXXXX   .........  ..  XXXXXX",
"XXXXXXX    ............. .  XXXX        ................ .  XXXX        .......... .  ..  XXXXXXXXXXXXX    ....... .  ..  XXXXXX",
"XXXXXXX   ..  ..... ...              .............. ...              ..................   XXXXXXXXXXXXX   ..  .........   XXXXXX",
"XXXXXXX   ..  ............        . ......................        . ..................   XXXXXXXXXXXXXX   ..  ........   XXXXXXX",
"XXXXXXXX   ........  ...  . .......... ............  ...  . .......... ...............  XXXXXXXXXXXXXXXX   ...........  XXXXXXXX",
"XXXXXXXX    . .....  .... .........................  .... ............................  XXXXXXXXXXXXXXXX    . ........  XXXXXXXX",
"XXXXXXXXX   ..........................................................................  XXXXXXXXXXXXXXXXX   ..........  XXXXXXXX",
"XXXXXXXXX   ...........................................................................  XXXXXXXXXXXXXXXX   ...........  XXXXXXX",
"XXXXXXXXX   ...........................................................................  XXXXXXXXXXXXXXXX   ...........  XXXXXXX",
"XXXXXXXX    ..........................................................................    XXXXXXXXXXXXXX    ..........    XXXXXX",
"XXXXXXXX   ............................................................................   XXXXXXXXXXXXXX   ............   XXXXXX",
"XXXXXXX   ..........................................................................  ..  XXXXXXXXXXXXX   ..........  ..  XXXXXX",
"XXXXXXX   ........................................................................ .  ..  XXXXXXXXXXXXX   ........ .  ..  XXXXXX",
"XXXXXXX   ............................  . ............................  . .............   XXXXXXXXXXXXX   .............   XXXXXX",
"XXXXXXX   ...................... . ...  ........................ . ...  ...............   XXXXXXXXXXXXX   .............   XXXXXX",
"XXXXXXXX   ..............            ....................            .................   XXXXXXXXXXXXXXX   ...........   XXXXXXX",
"XXXXXXXXX  ............   ..          .................   ..          .................  XXXXXXXXXXXXXXXX  ............  XXXXXXX",
"XXXXXXXXX  .. ..........        XX    .  ...............        XX    .  .............   XXXXXXXXXXXXXXXX  .. ........   XXXXXXX",
"XXXXXXXXX  ..........  .    X  XXXXX   . ............  .    X  XXXXX   . .............    XXXXXXXXXXXXXXX  ...........    XXXXXX",
"XXXXXXXX   .  . ..... .   XXXXXXXX  X   ............. .   XXXXXXXX  X   ..............    XXXXXXXXXXXXXX   .  . ......    XXXXXX",
"XXXXXXXX  ..  ........   X  X XXXX  XX  ..............   X  X XXXX  XX  ...............   XXXXXXXXXXXXXX  ..  .........   XXXXXX",
"XXXXXXXX   ...........  XX  XXXXXXXXXX    ............  XX  XXXXXXXXXX    .............   XXXXXXXXXXXXXX   ............   XXXXXX",
"XXXXXXXX   ...........  XXXXXXXXX X XXX   ............  XXXXXXXXX X XXX   .............  XXXXXXXXXXXXXXX   ............  XXXXXXX",
"XXXXXXXXX   .........   XX X XXXXXXXXXXX  ...........   XX X XXXXXXXXXXX  ............   XXXXXXXXXXXXXXXX   ..........   XXXXXXX",
"XXXXXXXXX   .........   XXXXXXXXXXXXXXXX   ..........   XXXXXXXXXXXXXXXX   ...........   XXXXXXXXXXXXXXXX   ..........   XXXXXXX",
"XXXXXXXX   ..........   XXXXXXXXXXXXXXXX   ..........   XXXXXXXXXXXXXXXX   ..........   XXXXXXXXXXXXXXXXX   ..........  XXXXXXXX",
"XXXXXXXX   ..........   XXXXXXXXXX X  X    ..........   X XXXXXXXXXXXXXX   ..........   XXXXXXXXXXXXXXXXX  ...........  XXXXXXXX",
"XXXXXXXX   .  .......   X XXXXXXXXXX  X   ..  .......   X  XXXXXXXXXXX X   .......  .   XXXXXXXXXXXXXXXX  ...  .......  XXXXXXXX",
"XXXXXXXX   .  ........  XXXXXXXXXXXXXXXX  .. .........  XXXXXXXXXXXXXXXX  ........  .   XXXXXXXXXXXXXXXX  ...  . .....  XXXXXXXX",
"XXXXXXX    ...........   XXXXX XXXXX XX    ...........   XXXXX XX XXXXX   ...........    XXXXXXXXXXXXXXX  .............  XXXXXXX",
"XXXXXXX    . .........   XXXXXXXXXXXXXX . ............   XXXXXXXXXXXXXX   ......... .    XXXXXXXXXXXXXXXX .............   XXXXXX",
"XXXXXXX    ...........    XXX  XX XXX     ............    XXX  XX  XXX    ..........     XXXXXXXXXXXXXXXX  ............   XXXXXX",
"XXXXXXX     ..........     XX  XXXX      ............. .   XX  XX  XX     ..........     XXXXXXXXXXXXXXX   .........  ..  XXXXXX",
"XXXXXXX   .............  .  XXXX        ................ .  XXXXXXXX  .  .............   XXXXXXXXXXXXXX    ....... .  ..  XXXXXX",
"XXXXXXXX  ......... ......           .............. ...               ...... .........  XXXXXXXXXXXXXXX   ..  .........   XXXXXX",
"XXXXXXXX  ................        . ......................            ................  XXXXXXXXXXXXXXX   ..  ........   XXXXXXX",
"XXXXXXXXX  ........  ...  ............ ............  ...  . ..........  ...  ........  XXXXXXXXXXXXXXXXX   ...........  XXXXXXXX",
"XXXXXXXXX   .......  ...  . .......................  .... .......... .  ...  .......   XXXXXXXXXXXXXXXXX    . ........  XXXXXXXX",
"XXXXXXXXX   ........................................................................   XXXXXXXXXXXXXXXXXX   ..........  XXXXXXXX",
"XXXXXXXXX   ........................................................................   XXXXXXXXXXXXXXXXXX   ...........  XXXXXXX",
"XXXXXXXXX   ........................................................................   XXXXXXXXXXXXXXXXXX   ...........  XXXXXXX",
"XXXXXXXXX   ................................................ .......................   XXXXXXXXXXXXXXXXXX   ...........  XXXXXXX",
"XXXXXXXXXX   ..  ............................  ................................  ..   XXXXXXXXXXXXXXXXXXX   ...........  XXXXXXX",
"XXXXXXXXXX    .  . ...................  .....  ............  ................ .  .    XXXXXXXXXXXXXXXXXXX   ..........  XXXXXXXX",
"XXXXXXXXXX      ........... ........ .  ................. .  ....... ...........      XXXXXXXXXXXXXXXXXX    . ........  XXXXXXXX",
"XXXXXXXXXXX       .. ...................................................... ..       XXXXXXXXXXXXXXXXXXX   ...........  XXXXXXXX",
"XXXXXXXXXXXX       .......  .................  ........   ..........  .......       XXXXXXXXXXXXXXXXXXX   ..  ........   XXXXXXX",
"XXXXXXXXXXXXXXXX       ..       .......            ...     ..  .       ..       XXXXXXXXXXXXXXXXXXXXXXX   ..  .........   XXXXXX",
"XXXXXXXXXXXXXXXXX                                                              XXXXXXXXXXXXXXXXXXXXXXXX    ....... .  .   XXXXXX",
"XXXXXXXXXXXXXXXXX                         XXX   XX     XXX                     XXXXXXXXXXXXXXXXXXXXXXXXX   .........  .   XXXXXX",
"XXXXXXXXXXXXXXXXXXX          XXXX  XX   XXXXXXXXXXXXXXXXXXX   XXXXX          XXXXXXXXXXXXXXXXXXXXXXXXXXX    ..........    XXXXXX",
"XXXXXXXXXXXXXXXXXXXXXXXXXXXXXXXXXXXXXXXXXXXXXXXXXXXXXXXXXXXXXXXXXXXXXXXXXXXXXXXXXXXXXXXXXXXXXXXXXXXXXXXXX    ......       XXXXXX",
"XXXXXXXXXXXXXXXXXXXXXXXXXXXXXXXXXXXXXXXXXXXXXXXXXXXXXXXXXXXXXXXXXXXXXXXXXXXXXXXXXXXXXXXXXXXXXXXXXXXXXXXXX                XXXXXXX",
"XXXXXXXXXXXXXXXXXXXXXXXXXXXXXXXXXXXXXXXXXXXXXXXXXXXXXXXXXXXXXXXXXXXXXXXXXXXXXXXXXXXXXXXXXXXXXXXXXXXXXXXXXXX            XXXXXXXXX",
"XXXXXXXXXXXXXXXXXXXXXXXXXXXXXXXXXXXXXXXXXXXXXXXXXXXXXXXXXXXXXXXXXXXXXXXXXXXXXXXXXXXXXXXXXXXXXXXXXXXXXXXXXXXXX        XXXXXXXXXXX",
"XXXXXXXXXXXXXXXXXXXXXXXXXXXXXXXXXXXXXXXXXXXXXXXXXXXXXXXXXXXXXXXXXXXXXXXXXXXXXXXXXXXXXXXXXXXXXXXXXXXXXXXXXXXXXXXXXXXXXXXXXXXXXXXX",
"XXXXXXXXXXXXXXXXXXXXXXXXXXXXXXXXXXXXXXXXXXXXXXXXXXXXXXXXXXXXXXXXXXXXXXXXXXXXXXXXXXXXXXXXXXXXXXXXXXXXXXXXXXXXXXXXXXXXXXXXXXXXXXXX",
"XXXXXXXXXXXXXXXXXXXXXXXXXXXXXXXXXXXXXXXXXXXXXXXXXXXXXXXXXXXXXXXXXXXXXXXXXXXXXXXXXXXXXXXXXXXXXXXXXXXXXXXXXXXXXXXXXXXXXXXXXXXXXXXX",
"XXXXXXXXXXXXXXXXXXXXXXXXXXXXXXXXXXXXXXXXXXXXXXXXXXXXXXXXXXXXXXXXXXXXXXXXXXXXXXXXXXXXXXXXXXXXXXXXXXXXXXXXXXXXXXXXXXXXXXXXXXXXXXXX",
"XXXXXXXXXXXXXXXXXXXXXXXXXXXXXXXXXXXXXXXXXXXXXXXXXXXXXXXXXXXXXXXXXXXXXXXXXXXXXXXXXXXXXXXXXXXXXXXXXXXXXXXXXXXXXXXXXXXXXXXXXXXXXXXX",
"XXXXXXXXXXXXXXXXXXXXXXXXXXXXXXXXXXXXXXXXXXXXXXXXXXXXXXXXXXXXXXXXXXXXXXXXXXXXXXXXXXXXXXXXXXXXXXXXXXXXXXXXXXXXXXXXXXXXXXXXXXXXXXXX",
"XXXXXXXXXXXXXXXXXXXXXXXXXXXXXXXXXXXXXXXXXXXXXXXXXXXXXXXXXXXXXXXXXXXXXXXXXXXXXXXXXXXXXXXXXXXXXXXXXXXXXXXXXXXXXXXXXXXXXXXXXXXXXXXX",
"XXXXXXXXXXXXXXXXXXXXXXXXXXXXXXXXXXXXXXXXXXXXXXXXXXXXXXXXXXXXXXXXXXXXXXXXXXXXXXXXXXXXXXXXXXXXXXXXXXXXXXXXXXXX   XX   XXXXXXXXXXXX",
"XXXXXXXXXXXXXXXXXXXXXXXXXXXXXXXXXXXXXXXXXXXXXXXXXXXXXXXXXXXXXXXXXXXXXXXXXXXXXXXXXXXXXXXXXXXXXXXXXXXXXXXXXX            XXXXXXXXXX",
"XXXXXXXX   XXXXXXXX   XXXXXXXXXXX     XXXXXXXXXXXXX   XXXXXXXXXXX     XXXXXXXXXXXXXXX   XXXXXXXXXXXXXXXX                XXXXXXXX",
"XXXXXX       XXXXX     XX    XXX       XX      XXX     XX    XXX       XX      XXXX       XXXXXXXXXXXXXX     ..         XXXXXXXX",
"XXXX                                                                                        XXXXXXXXXXX    .....   ..    XXXXXXX",
"XXXX     ..         ..            ....    ...       ..            ....    ...        ..     XXXXXXXXXXX   ...  .......   XXXXXXX",
"XXX    .....      ......   ...................    ......   ...................      .....    XXXXXXXXX   ....  . ......   XXXXXX",
"XXX   ...  ........  ............  ................  ............  ..................  ...   XXXXXXXXX   .  ...........   XXXXXX",
"XX   ....  . ......  . ..........  . ..............  . ..........  . .............. .  ....   XXXXXXXX   .  ...........   XXXXXX",
"XX   ......................................................................................   XXXXXXX   ..  ..........     XXXXX",
"XX   ......................................... ............................... ............   XXXXXXX   ..... ........     XXXXX",
"X   ........................ ............................... ...............................   XXXXXX    . ...........     XXXXX",
"X   .........................................  ..............................  .............   XXXXXX    ...  ........     XXXXX",
"X   ... ...................  .........  .....  ............  .........  .....  ......... ...   XXXXXX    ...  .........    XXXXX",
"X    .................... .  ....... .  ................. .  ....... .  ...................    XXXXXXX   ......... .  .   XXXXXX",
"X    .  ................................................................................  .    XXXXXXX    ..........  .   XXXXXX",
"XX   .  ...............   ...................  ........   ...................  .........  .   XXXXXXXXX     ..........    XXXXXX",
"XX    ...    ..    ...     ..  ........            ...     ..  ........          ..    ...    XXXXXXXXX      ......       XXXXXX",
"XXX                                                                                          XXXXXXXXXXX                 XXXXXXX",
"XXX       XXX   XX     XXX                XXX   XX     XXX                XXX      XXX       XXXXXXXXXXXXXX            XXXXXXXXX",
"XXXX     XXXXXXXXXXXXXXXXXX   XXX  XX   XXXXXXXXXXXXXXXXXXX   XXX  XX   XXXXXXXXXXXXXXX     XXXXXXXXXXXXXXXXX        XXXXXXXXXXX",
"XXXXXXXXXXXXXXXXXXXXXXXXXXXXXXXXXXXXXXXXXXXXXXXXXXXXXXXXXXXXXXXXXXXXXXXXXXXXXXXXXXXXXXXXXXXXXXXXXXXXXXXXXXXXXXXXXXXXXXXXXXXXXXXX",
"XXXXXXXXXXXXXXXXXXXXXXXXXXXXXXXXXXXXXXXXXXXXXXXXXXXXXXXXXXXXXXXXXXXXXXXXXXXXXXXXXXXXXXXXXXXXXXXXXXXXXXXXXXXXXXXXXXXXXXXXXXXXXXXX",
"XXXXXXXXXXXXXXXXXXXXXXXXXXXXXXXXXXXXXXXXXXXXXXXXXXXXXXXXXXXXXXXXXXXXXXXXXXXXXXXXXXXXXXXXXXXXXXXXXXXXXXXXXXXXXXXXXXXXXXXXXXXXXXXX",
"XXXXXXXXXXXXXXXXXXXXXXXXXXXXXXXXXXXXXXXXXXXXXXXXXXXXXXXXXXXXXXXXXXXXXXXXXXXXXXXXXXXXXXXXXXXXXXXXXXXXXXXXXXXXXXXXXXXXXXXXXXXXXXXX",
"XXXXXXXXXXXXXXXXXXXXXXXXXXXXXXXXXXXXXXXXXXXXXXXXXXXXXXXXXXXXXXXXXXXXXXXXXXXXXXXXXXXXXXXXXXXXXXXXXXXXXXXXXXXXXXXXXXXXXXXXXXXXXXXX",
"XXXXXXXXXXXXXXXXXXXXXXXXXXXXXXXXXXXXXXXXXXXXXXXXXXXXXXXXXXXXXXXXXXXXXXXXXXXXXXXXXXXXXXXXXXXXXXXXXXXXXXXXXXXXXXXXXXXXXXXXXXXXXXXX"
};
